0
SECTION
2
HEADER
9
$ANGDIR
70
1
9
$AUNITS
70
0
9
$PROJECTNAME
1
Cap Piano - PCB
9
$TDCREATE
40
2459913.35342439
9
$INSUNITS
70
4
0
ENDSEC
0
SECTION
2
ENTITIES
0
POLYLINE
66
1
8
outline
10
0.0
20
0.0
30
0.0
70
1
0
VERTEX
8
0
10
36.190000000000005
20
-2.89
30
0
0
VERTEX
8
0
10
93.4
20
-2.89
30
0
0
VERTEX
8
0
10
93.4
20
71.11
30
0
0
VERTEX
8
0
10
36.190000000000005
20
71.11
30
0
0
VERTEX
8
0
10
36.190000000000005
20
-2.89
30
0
0
SEQEND
0
POLYLINE
66
1
8
1_copper
10
0.0
20
0.0
30
0.0
70
1
0
VERTEX
8
0
10
53.987271875000005
20
36.45663125
30
0
42
0.35780596236554063
0
VERTEX
8
0
10
54.610200000000006
20
37.143928125
30
0
0
VERTEX
8
0
10
54.610200000000006
20
38.676071875000005
30
0
0
VERTEX
8
0
10
54.60316875
20
38.747471875
30
0
42
0.9063475582535283
0
VERTEX
8
0
10
53.1498
20
38.676071875000005
30
0
0
VERTEX
8
0
10
53.1498
20
37.143928125
30
0
0
VERTEX
8
0
10
53.15683125
20
37.072528125000005
30
0
42
0.3857423796044815
0
VERTEX
8
0
10
53.915871875
20
36.449600000000004
30
0
0
SEQEND
0
POLYLINE
66
1
8
1_copper
10
0.0
20
0.0
30
0.0
70
1
0
VERTEX
8
0
10
84.46727187500001
20
36.45663125
30
0
42
0.35780596236554063
0
VERTEX
8
0
10
85.09020000000001
20
37.143928125
30
0
0
VERTEX
8
0
10
85.09020000000001
20
38.676071875000005
30
0
0
VERTEX
8
0
10
85.08316875
20
38.747471875
30
0
42
0.9063475582535283
0
VERTEX
8
0
10
83.6298
20
38.676071875000005
30
0
0
VERTEX
8
0
10
83.6298
20
37.143928125
30
0
0
VERTEX
8
0
10
83.63683125
20
37.072528125000005
30
0
42
0.3857423796044815
0
VERTEX
8
0
10
84.395871875
20
36.449600000000004
30
0
0
SEQEND
0
POLYLINE
66
1
8
1_copper
10
0.0
20
0.0
30
0.0
70
1
0
VERTEX
8
0
10
81.927271875
20
36.45663125
30
0
42
0.35780596236554063
0
VERTEX
8
0
10
82.5502
20
37.143928125
30
0
0
VERTEX
8
0
10
82.5502
20
38.676071875000005
30
0
0
VERTEX
8
0
10
82.54316875
20
38.747471875
30
0
42
0.9063475582535283
0
VERTEX
8
0
10
81.08980000000001
20
38.676071875000005
30
0
0
VERTEX
8
0
10
81.08980000000001
20
37.143928125
30
0
0
VERTEX
8
0
10
81.09683125000001
20
37.072528125000005
30
0
42
0.3857423796044815
0
VERTEX
8
0
10
81.855871875
20
36.449600000000004
30
0
0
SEQEND
0
POLYLINE
66
1
8
1_copper
10
0.0
20
0.0
30
0.0
70
1
0
VERTEX
8
0
10
79.38727187500001
20
36.45663125
30
0
42
0.35780596236554063
0
VERTEX
8
0
10
80.0102
20
37.143928125
30
0
0
VERTEX
8
0
10
80.0102
20
38.676071875000005
30
0
0
VERTEX
8
0
10
80.00316875
20
38.747471875
30
0
42
0.9063475582535283
0
VERTEX
8
0
10
78.5498
20
38.676071875000005
30
0
0
VERTEX
8
0
10
78.5498
20
37.143928125
30
0
0
VERTEX
8
0
10
78.55683125
20
37.072528125000005
30
0
42
0.3857423796044815
0
VERTEX
8
0
10
79.315871875
20
36.449600000000004
30
0
0
SEQEND
0
POLYLINE
66
1
8
1_copper
10
0.0
20
0.0
30
0.0
70
1
0
VERTEX
8
0
10
56.527271875000004
20
36.45663125
30
0
42
0.35780596236554063
0
VERTEX
8
0
10
57.150200000000005
20
37.143928125
30
0
0
VERTEX
8
0
10
57.150200000000005
20
38.676071875000005
30
0
0
VERTEX
8
0
10
57.14316875
20
38.747471875
30
0
42
0.9063475582535283
0
VERTEX
8
0
10
55.689800000000005
20
38.676071875000005
30
0
0
VERTEX
8
0
10
55.689800000000005
20
37.143928125
30
0
0
VERTEX
8
0
10
55.69683125
20
37.072528125000005
30
0
42
0.3857423796044815
0
VERTEX
8
0
10
56.455871875
20
36.449600000000004
30
0
0
SEQEND
0
POLYLINE
66
1
8
1_copper
10
0.0
20
0.0
30
0.0
70
1
0
VERTEX
8
0
10
61.607271875
20
36.45663125
30
0
42
0.35780596236554063
0
VERTEX
8
0
10
62.2302
20
37.143928125
30
0
0
VERTEX
8
0
10
62.2302
20
38.676071875000005
30
0
0
VERTEX
8
0
10
62.223168750000006
20
38.747471875
30
0
42
0.9063475582535283
0
VERTEX
8
0
10
60.769800000000004
20
38.676071875000005
30
0
0
VERTEX
8
0
10
60.769800000000004
20
37.143928125
30
0
0
VERTEX
8
0
10
60.77683125
20
37.072528125000005
30
0
42
0.3857423796044815
0
VERTEX
8
0
10
61.535871875000005
20
36.449600000000004
30
0
0
SEQEND
0
POLYLINE
66
1
8
1_copper
10
0.0
20
0.0
30
0.0
70
1
0
VERTEX
8
0
10
59.067271875
20
36.45663125
30
0
42
0.35780596236554063
0
VERTEX
8
0
10
59.690200000000004
20
37.143928125
30
0
0
VERTEX
8
0
10
59.690200000000004
20
38.676071875000005
30
0
0
VERTEX
8
0
10
59.68316875
20
38.747471875
30
0
42
0.9063475582535283
0
VERTEX
8
0
10
58.229800000000004
20
38.676071875000005
30
0
0
VERTEX
8
0
10
58.229800000000004
20
37.143928125
30
0
0
VERTEX
8
0
10
58.23683125
20
37.072528125000005
30
0
42
0.3857423796044815
0
VERTEX
8
0
10
58.995871875000006
20
36.449600000000004
30
0
0
SEQEND
0
POLYLINE
66
1
8
1_copper
10
0.0
20
0.0
30
0.0
70
1
0
VERTEX
8
0
10
48.907271875
20
21.216631250000002
30
0
42
0.35780596236554063
0
VERTEX
8
0
10
49.5302
20
21.903928125
30
0
0
VERTEX
8
0
10
49.5302
20
23.436071875
30
0
0
VERTEX
8
0
10
49.52316875
20
23.507471875
30
0
42
0.9063475582535283
0
VERTEX
8
0
10
48.0698
20
23.436071875
30
0
0
VERTEX
8
0
10
48.0698
20
21.903928125
30
0
0
VERTEX
8
0
10
48.076831250000005
20
21.832528125
30
0
42
0.3857423796044815
0
VERTEX
8
0
10
48.835871875
20
21.209600000000002
30
0
0
SEQEND
0
POLYLINE
66
1
8
1_copper
10
0.0
20
0.0
30
0.0
70
1
0
VERTEX
8
0
10
51.447271875000006
20
21.216631250000002
30
0
42
0.35780596236554063
0
VERTEX
8
0
10
52.0702
20
21.903928125
30
0
0
VERTEX
8
0
10
52.0702
20
23.436071875
30
0
0
VERTEX
8
0
10
52.06316875
20
23.507471875
30
0
42
0.9063475582535283
0
VERTEX
8
0
10
50.6098
20
23.436071875
30
0
0
VERTEX
8
0
10
50.6098
20
21.903928125
30
0
0
VERTEX
8
0
10
50.616831250000004
20
21.832528125
30
0
42
0.3857423796044815
0
VERTEX
8
0
10
51.375871875
20
21.209600000000002
30
0
0
SEQEND
0
POLYLINE
66
1
8
1_copper
10
0.0
20
0.0
30
0.0
70
1
0
VERTEX
8
0
10
53.987271875000005
20
21.216631250000002
30
0
42
0.35780596236554063
0
VERTEX
8
0
10
54.610200000000006
20
21.903928125
30
0
0
VERTEX
8
0
10
54.610200000000006
20
23.436071875
30
0
0
VERTEX
8
0
10
54.60316875
20
23.507471875
30
0
42
0.9063475582535283
0
VERTEX
8
0
10
53.1498
20
23.436071875
30
0
0
VERTEX
8
0
10
53.1498
20
21.903928125
30
0
0
VERTEX
8
0
10
53.15683125
20
21.832528125
30
0
42
0.3857423796044815
0
VERTEX
8
0
10
53.915871875
20
21.209600000000002
30
0
0
SEQEND
0
POLYLINE
66
1
8
1_copper
10
0.0
20
0.0
30
0.0
70
1
0
VERTEX
8
0
10
56.527271875000004
20
21.216631250000002
30
0
42
0.35780596236554063
0
VERTEX
8
0
10
57.150200000000005
20
21.903928125
30
0
0
VERTEX
8
0
10
57.150200000000005
20
23.436071875
30
0
0
VERTEX
8
0
10
57.14316875
20
23.507471875
30
0
42
0.9063475582535283
0
VERTEX
8
0
10
55.689800000000005
20
23.436071875
30
0
0
VERTEX
8
0
10
55.689800000000005
20
21.903928125
30
0
0
VERTEX
8
0
10
55.69683125
20
21.832528125
30
0
42
0.3857423796044815
0
VERTEX
8
0
10
56.455871875
20
21.209600000000002
30
0
0
SEQEND
0
POLYLINE
66
1
8
1_copper
10
0.0
20
0.0
30
0.0
70
1
0
VERTEX
8
0
10
79.38727187500001
20
21.216631250000002
30
0
42
0.35780596236554063
0
VERTEX
8
0
10
80.0102
20
21.903928125
30
0
0
VERTEX
8
0
10
80.0102
20
23.436071875
30
0
0
VERTEX
8
0
10
80.00316875
20
23.507471875
30
0
42
0.9063475582535283
0
VERTEX
8
0
10
78.5498
20
23.436071875
30
0
0
VERTEX
8
0
10
78.5498
20
21.903928125
30
0
0
VERTEX
8
0
10
78.55683125
20
21.832528125
30
0
42
0.3857423796044815
0
VERTEX
8
0
10
79.315871875
20
21.209600000000002
30
0
0
SEQEND
0
POLYLINE
66
1
8
16_copper
10
0.0
20
0.0
30
0.0
70
1
0
VERTEX
8
0
10
53.976078125
20
36.608296875
30
0
42
0.3578058919557322
0
VERTEX
8
0
10
54.534000000000006
20
37.223871875
30
0
0
VERTEX
8
0
10
54.534000000000006
20
38.596128125
30
0
0
VERTEX
8
0
10
54.527703125
20
38.660078125000005
30
0
42
0.9063474445600833
0
VERTEX
8
0
10
53.226
20
38.596128125
30
0
0
VERTEX
8
0
10
53.226
20
37.223871875
30
0
0
VERTEX
8
0
10
53.232296875
20
37.159921875
30
0
42
0.3857420086717843
0
VERTEX
8
0
10
53.912128125
20
36.602000000000004
30
0
0
SEQEND
0
POLYLINE
66
1
8
16_copper
10
0.0
20
0.0
30
0.0
70
1
0
VERTEX
8
0
10
84.456078125
20
36.608296875
30
0
42
0.3578058919557322
0
VERTEX
8
0
10
85.01400000000001
20
37.223871875
30
0
0
VERTEX
8
0
10
85.01400000000001
20
38.596128125
30
0
0
VERTEX
8
0
10
85.007703125
20
38.660078125000005
30
0
42
0.9063474445600833
0
VERTEX
8
0
10
83.706
20
38.596128125
30
0
0
VERTEX
8
0
10
83.706
20
37.223871875
30
0
0
VERTEX
8
0
10
83.712296875
20
37.159921875
30
0
42
0.3857420086717843
0
VERTEX
8
0
10
84.392128125
20
36.602000000000004
30
0
0
SEQEND
0
POLYLINE
66
1
8
16_copper
10
0.0
20
0.0
30
0.0
70
1
0
VERTEX
8
0
10
81.916078125
20
36.608296875
30
0
42
0.3578058919557322
0
VERTEX
8
0
10
82.474
20
37.223871875
30
0
0
VERTEX
8
0
10
82.474
20
38.596128125
30
0
0
VERTEX
8
0
10
82.467703125
20
38.660078125000005
30
0
42
0.9063474445600833
0
VERTEX
8
0
10
81.166
20
38.596128125
30
0
0
VERTEX
8
0
10
81.166
20
37.223871875
30
0
0
VERTEX
8
0
10
81.172296875
20
37.159921875
30
0
42
0.3857420086717843
0
VERTEX
8
0
10
81.85212812500001
20
36.602000000000004
30
0
0
SEQEND
0
POLYLINE
66
1
8
16_copper
10
0.0
20
0.0
30
0.0
70
1
0
VERTEX
8
0
10
79.376078125
20
36.608296875
30
0
42
0.3578058919557322
0
VERTEX
8
0
10
79.934
20
37.223871875
30
0
0
VERTEX
8
0
10
79.934
20
38.596128125
30
0
0
VERTEX
8
0
10
79.92770312500001
20
38.660078125000005
30
0
42
0.9063474445600833
0
VERTEX
8
0
10
78.626
20
38.596128125
30
0
0
VERTEX
8
0
10
78.626
20
37.223871875
30
0
0
VERTEX
8
0
10
78.63229687500001
20
37.159921875
30
0
42
0.3857420086717843
0
VERTEX
8
0
10
79.312128125
20
36.602000000000004
30
0
0
SEQEND
0
POLYLINE
66
1
8
16_copper
10
0.0
20
0.0
30
0.0
70
1
0
VERTEX
8
0
10
56.516078125
20
36.608296875
30
0
42
0.3578058919557322
0
VERTEX
8
0
10
57.074000000000005
20
37.223871875
30
0
0
VERTEX
8
0
10
57.074000000000005
20
38.596128125
30
0
0
VERTEX
8
0
10
57.067703125
20
38.660078125000005
30
0
42
0.9063474445600833
0
VERTEX
8
0
10
55.766000000000005
20
38.596128125
30
0
0
VERTEX
8
0
10
55.766000000000005
20
37.223871875
30
0
0
VERTEX
8
0
10
55.772296875
20
37.159921875
30
0
42
0.3857420086717843
0
VERTEX
8
0
10
56.452128125
20
36.602000000000004
30
0
0
SEQEND
0
POLYLINE
66
1
8
16_copper
10
0.0
20
0.0
30
0.0
70
1
0
VERTEX
8
0
10
61.596078125000005
20
36.608296875
30
0
42
0.3578058919557322
0
VERTEX
8
0
10
62.154
20
37.223871875
30
0
0
VERTEX
8
0
10
62.154
20
38.596128125
30
0
0
VERTEX
8
0
10
62.147703125
20
38.660078125000005
30
0
42
0.9063474445600833
0
VERTEX
8
0
10
60.846000000000004
20
38.596128125
30
0
0
VERTEX
8
0
10
60.846000000000004
20
37.223871875
30
0
0
VERTEX
8
0
10
60.852296875
20
37.159921875
30
0
42
0.3857420086717843
0
VERTEX
8
0
10
61.532128125
20
36.602000000000004
30
0
0
SEQEND
0
POLYLINE
66
1
8
16_copper
10
0.0
20
0.0
30
0.0
70
1
0
VERTEX
8
0
10
59.056078125000006
20
36.608296875
30
0
42
0.3578058919557322
0
VERTEX
8
0
10
59.614000000000004
20
37.223871875
30
0
0
VERTEX
8
0
10
59.614000000000004
20
38.596128125
30
0
0
VERTEX
8
0
10
59.607703125
20
38.660078125000005
30
0
42
0.9063474445600833
0
VERTEX
8
0
10
58.306000000000004
20
38.596128125
30
0
0
VERTEX
8
0
10
58.306000000000004
20
37.223871875
30
0
0
VERTEX
8
0
10
58.312296875
20
37.159921875
30
0
42
0.3857420086717843
0
VERTEX
8
0
10
58.992128125
20
36.602000000000004
30
0
0
SEQEND
0
POLYLINE
66
1
8
16_copper
10
0.0
20
0.0
30
0.0
70
1
0
VERTEX
8
0
10
48.896078125
20
21.368296875000002
30
0
42
0.3578058919557322
0
VERTEX
8
0
10
49.454
20
21.983871875000002
30
0
0
VERTEX
8
0
10
49.454
20
23.356128125
30
0
0
VERTEX
8
0
10
49.447703125000004
20
23.420078125
30
0
42
0.9063474445600833
0
VERTEX
8
0
10
48.146
20
23.356128125
30
0
0
VERTEX
8
0
10
48.146
20
21.983871875000002
30
0
0
VERTEX
8
0
10
48.152296875000005
20
21.919921875
30
0
42
0.3857420086717843
0
VERTEX
8
0
10
48.832128125000004
20
21.362000000000002
30
0
0
SEQEND
0
POLYLINE
66
1
8
16_copper
10
0.0
20
0.0
30
0.0
70
1
0
VERTEX
8
0
10
51.436078125
20
21.368296875000002
30
0
42
0.3578058919557322
0
VERTEX
8
0
10
51.994
20
21.983871875000002
30
0
0
VERTEX
8
0
10
51.994
20
23.356128125
30
0
0
VERTEX
8
0
10
51.987703125
20
23.420078125
30
0
42
0.9063474445600833
0
VERTEX
8
0
10
50.686
20
23.356128125
30
0
0
VERTEX
8
0
10
50.686
20
21.983871875000002
30
0
0
VERTEX
8
0
10
50.692296875000004
20
21.919921875
30
0
42
0.3857420086717843
0
VERTEX
8
0
10
51.372128125
20
21.362000000000002
30
0
0
SEQEND
0
POLYLINE
66
1
8
16_copper
10
0.0
20
0.0
30
0.0
70
1
0
VERTEX
8
0
10
53.976078125
20
21.368296875000002
30
0
42
0.3578058919557322
0
VERTEX
8
0
10
54.534000000000006
20
21.983871875000002
30
0
0
VERTEX
8
0
10
54.534000000000006
20
23.356128125
30
0
0
VERTEX
8
0
10
54.527703125
20
23.420078125
30
0
42
0.9063474445600833
0
VERTEX
8
0
10
53.226
20
23.356128125
30
0
0
VERTEX
8
0
10
53.226
20
21.983871875000002
30
0
0
VERTEX
8
0
10
53.232296875
20
21.919921875
30
0
42
0.3857420086717843
0
VERTEX
8
0
10
53.912128125
20
21.362000000000002
30
0
0
SEQEND
0
POLYLINE
66
1
8
16_copper
10
0.0
20
0.0
30
0.0
70
1
0
VERTEX
8
0
10
56.516078125
20
21.368296875000002
30
0
42
0.3578058919557322
0
VERTEX
8
0
10
57.074000000000005
20
21.983871875000002
30
0
0
VERTEX
8
0
10
57.074000000000005
20
23.356128125
30
0
0
VERTEX
8
0
10
57.067703125
20
23.420078125
30
0
42
0.9063474445600833
0
VERTEX
8
0
10
55.766000000000005
20
23.356128125
30
0
0
VERTEX
8
0
10
55.766000000000005
20
21.983871875000002
30
0
0
VERTEX
8
0
10
55.772296875
20
21.919921875
30
0
42
0.3857420086717843
0
VERTEX
8
0
10
56.452128125
20
21.362000000000002
30
0
0
SEQEND
0
POLYLINE
66
1
8
16_copper
10
0.0
20
0.0
30
0.0
70
1
0
VERTEX
8
0
10
79.376078125
20
21.368296875000002
30
0
42
0.3578058919557322
0
VERTEX
8
0
10
79.934
20
21.983871875000002
30
0
0
VERTEX
8
0
10
79.934
20
23.356128125
30
0
0
VERTEX
8
0
10
79.92770312500001
20
23.420078125
30
0
42
0.9063474445600833
0
VERTEX
8
0
10
78.626
20
23.356128125
30
0
0
VERTEX
8
0
10
78.626
20
21.983871875000002
30
0
0
VERTEX
8
0
10
78.63229687500001
20
21.919921875
30
0
42
0.3857420086717843
0
VERTEX
8
0
10
79.312128125
20
21.362000000000002
30
0
0
SEQEND
0
POLYLINE
66
1
8
1_copper
10
0.0
20
0.0
30
0.0
70
1
0
VERTEX
8
0
10
40.7
20
8.433950000000001
30
0
0
VERTEX
8
0
10
40.7
20
9.48605
30
0
0
VERTEX
8
0
10
39.956050000000005
20
10.23
30
0
0
VERTEX
8
0
10
38.90395
20
10.23
30
0
0
VERTEX
8
0
10
38.885528125
20
10.211578125
30
0
0
VERTEX
8
0
10
38.246
20
10.85110625
30
0
0
VERTEX
8
0
10
38.246
20
33.53889375
30
0
0
VERTEX
8
0
10
41.876906250000005
20
37.1698
30
0
0
VERTEX
8
0
10
42.343878125
20
37.1698
30
0
0
VERTEX
8
0
10
42.674078125
20
37.5
30
0
0
VERTEX
8
0
10
45.17156875
20
37.5
30
0
0
VERTEX
8
0
10
45.19745
20
37.501446875
30
0
0
VERTEX
8
0
10
45.223375000000004
20
37.502690625
30
0
42
0.14273568292938665
0
VERTEX
8
0
10
45.48241875
20
37.608371875
30
0
0
VERTEX
8
0
10
45.524175
20
37.645503125000005
30
0
42
0.0006684388420158373
0
VERTEX
8
0
10
45.525121875
20
37.646446875
30
0
0
VERTEX
8
0
10
46.353553125000005
20
38.474878125000004
30
0
0
VERTEX
8
0
10
46.370825
20
38.494196875
30
0
0
VERTEX
8
0
10
46.388284375000005
20
38.5134125
30
0
42
0.1427356176412374
0
VERTEX
8
0
10
46.496728125000004
20
38.7713125
30
0
0
VERTEX
8
0
10
46.499996875
20
38.82709375
30
0
42
0.0006687526842779185
0
VERTEX
8
0
10
46.5
20
38.82843125
30
0
0
VERTEX
8
0
10
46.5
20
41.5
30
0
0
VERTEX
8
0
10
49.792893750000005
20
41.5
30
0
0
VERTEX
8
0
10
50.84
20
40.45289375
30
0
0
VERTEX
8
0
10
50.84
20
39.17285625
30
0
0
VERTEX
8
0
10
50.79830625
20
39.1311625
30
0
42
0.17351662862968317
0
VERTEX
8
0
10
50.6098
20
38.676071875000005
30
0
0
VERTEX
8
0
10
50.6098
20
37.143928125
30
0
0
VERTEX
8
0
10
50.616831250000004
20
37.072528125000005
30
0
42
0.9063475582535283
0
VERTEX
8
0
10
52.0702
20
37.143928125
30
0
0
VERTEX
8
0
10
52.0702
20
38.676071875000005
30
0
0
VERTEX
8
0
10
52.06316875
20
38.747471875
30
0
42
0.14833598864046654
0
VERTEX
8
0
10
51.881693750000004
20
39.1311625
30
0
0
VERTEX
8
0
10
51.84
20
39.17285625
30
0
0
VERTEX
8
0
10
51.84
20
40.660000000000004
30
0
0
VERTEX
8
0
10
51.838553125000004
20
40.68588125
30
0
0
VERTEX
8
0
10
51.837309375000004
20
40.71180625
30
0
42
0.14273568292938665
0
VERTEX
8
0
10
51.731628125
20
40.97085
30
0
0
VERTEX
8
0
10
51.694496875000006
20
41.012606250000005
30
0
42
0.0006684388420158373
0
VERTEX
8
0
10
51.693553125
20
41.013553125
30
0
0
VERTEX
8
0
10
50.353553125000005
20
42.353553125000005
30
0
0
VERTEX
8
0
10
50.334234375
20
42.370825
30
0
0
VERTEX
8
0
10
50.31501875
20
42.388284375000005
30
0
42
0.1427356176412374
0
VERTEX
8
0
10
50.05711875
20
42.496728125000004
30
0
0
VERTEX
8
0
10
50.001337500000005
20
42.499996875
30
0
42
0.0006687526842779185
0
VERTEX
8
0
10
50
20
42.5
30
0
0
VERTEX
8
0
10
46
20
42.5
30
0
0
VERTEX
8
0
10
45.973478125
20
42.498515625
30
0
0
VERTEX
8
0
10
45.9468625
20
42.49716875
30
0
42
0.3501289138148639
0
VERTEX
8
0
10
45.503428125
20
42.058446875
30
0
0
VERTEX
8
0
10
45.500006250000006
20
42.002671875000004
30
0
42
0.0013359422777441622
0
VERTEX
8
0
10
45.5
20
42
30
0
0
VERTEX
8
0
10
45.5
20
39.035537500000004
30
0
0
VERTEX
8
0
10
44.9644625
20
38.5
30
0
0
VERTEX
8
0
10
42.674078125
20
38.5
30
0
0
VERTEX
8
0
10
42.343878125
20
38.830200000000005
30
0
0
VERTEX
8
0
10
41.876906250000005
20
38.830200000000005
30
0
0
VERTEX
8
0
10
38.5
20
42.20710625
30
0
0
VERTEX
8
0
10
38.5
20
65.5
30
0
0
VERTEX
8
0
10
41.932893750000005
20
65.5
30
0
0
VERTEX
8
0
10
42.0934
20
65.33949375
30
0
0
VERTEX
8
0
10
42.0934
20
65.004890625
30
0
0
VERTEX
8
0
10
42.524890625000005
20
64.5734
30
0
0
VERTEX
8
0
10
43.135109375
20
64.5734
30
0
0
VERTEX
8
0
10
43.371709375
20
64.81
30
0
0
VERTEX
8
0
10
49.718290625
20
64.81
30
0
0
VERTEX
8
0
10
49.954890625000004
20
64.5734
30
0
0
VERTEX
8
0
10
50.565109375000006
20
64.5734
30
0
0
VERTEX
8
0
10
50.9966
20
65.004890625
30
0
0
VERTEX
8
0
10
50.9966
20
65.24629375
30
0
0
VERTEX
8
0
10
51.286446875
20
64.956446875
30
0
0
VERTEX
8
0
10
51.305765625
20
64.939175
30
0
0
VERTEX
8
0
10
51.32498125
20
64.921715625
30
0
42
0.1427356176412374
0
VERTEX
8
0
10
51.58288125
20
64.813271875
30
0
0
VERTEX
8
0
10
51.6386625
20
64.81000312500001
30
0
42
0.0006687526842779185
0
VERTEX
8
0
10
51.64
20
64.81
30
0
0
VERTEX
8
0
10
57.148290625
20
64.81
30
0
0
VERTEX
8
0
10
57.384890625000004
20
64.5734
30
0
0
VERTEX
8
0
10
57.995109375000006
20
64.5734
30
0
0
VERTEX
8
0
10
58.231709375
20
64.81
30
0
0
VERTEX
8
0
10
64.57829062500001
20
64.81
30
0
0
VERTEX
8
0
10
64.814890625
20
64.5734
30
0
0
VERTEX
8
0
10
65.425109375
20
64.5734
30
0
0
VERTEX
8
0
10
65.8566
20
65.004890625
30
0
0
VERTEX
8
0
10
65.8566
20
65.33949375
30
0
0
VERTEX
8
0
10
67.32710625
20
66.81
30
0
0
VERTEX
8
0
10
72.008290625
20
66.81
30
0
0
VERTEX
8
0
10
72.244890625
20
66.5734
30
0
0
VERTEX
8
0
10
72.855109375
20
66.5734
30
0
0
VERTEX
8
0
10
73.09170937500001
20
66.81
30
0
0
VERTEX
8
0
10
77.77289375000001
20
66.81
30
0
0
VERTEX
8
0
10
79.24340000000001
20
65.33949375
30
0
0
VERTEX
8
0
10
79.24340000000001
20
65.004890625
30
0
0
VERTEX
8
0
10
79.674890625
20
64.5734
30
0
0
VERTEX
8
0
10
80.285109375
20
64.5734
30
0
0
VERTEX
8
0
10
80.7166
20
65.004890625
30
0
0
VERTEX
8
0
10
80.7166
20
65.33949375
30
0
0
VERTEX
8
0
10
80.87710625
20
65.5
30
0
0
VERTEX
8
0
10
86.6734
20
65.5
30
0
0
VERTEX
8
0
10
86.6734
20
65.004890625
30
0
0
VERTEX
8
0
10
87.10489062500001
20
64.5734
30
0
0
VERTEX
8
0
10
87.715109375
20
64.5734
30
0
0
VERTEX
8
0
10
88.1466
20
65.004890625
30
0
0
VERTEX
8
0
10
88.1466
20
65.615109375
30
0
0
VERTEX
8
0
10
87.91000000000001
20
65.851709375
30
0
0
VERTEX
8
0
10
87.91000000000001
20
66
30
0
42
0.3802994616744343
0
VERTEX
8
0
10
87.468446875
20
66.496571875
30
0
0
VERTEX
8
0
10
87.412671875
20
66.49999375
30
0
42
0.0013359422777441622
0
VERTEX
8
0
10
87.41000000000001
20
66.5
30
0
0
VERTEX
8
0
10
80.67
20
66.5
30
0
0
VERTEX
8
0
10
80.64411875
20
66.498553125
30
0
0
VERTEX
8
0
10
80.61819375
20
66.497309375
30
0
42
0.14273568292938665
0
VERTEX
8
0
10
80.35915
20
66.391628125
30
0
0
VERTEX
8
0
10
80.31739375000001
20
66.35449687500001
30
0
42
0.0006684388420158373
0
VERTEX
8
0
10
80.316446875
20
66.353553125
30
0
0
VERTEX
8
0
10
80.00949375
20
66.0466
30
0
0
VERTEX
8
0
10
79.95050625
20
66.0466
30
0
0
VERTEX
8
0
10
78.33355312500001
20
67.663553125
30
0
0
VERTEX
8
0
10
78.314234375
20
67.680825
30
0
0
VERTEX
8
0
10
78.29501875
20
67.698284375
30
0
42
0.1427356176412374
0
VERTEX
8
0
10
78.03711875
20
67.806728125
30
0
0
VERTEX
8
0
10
77.98133750000001
20
67.80999687500001
30
0
42
0.0006687526842779185
0
VERTEX
8
0
10
77.98
20
67.81
30
0
0
VERTEX
8
0
10
73.09170937500001
20
67.81
30
0
0
VERTEX
8
0
10
72.855109375
20
68.0466
30
0
0
VERTEX
8
0
10
72.244890625
20
68.0466
30
0
0
VERTEX
8
0
10
72.008290625
20
67.81
30
0
0
VERTEX
8
0
10
67.12
20
67.81
30
0
0
VERTEX
8
0
10
67.09411875
20
67.808553125
30
0
0
VERTEX
8
0
10
67.06819375
20
67.807309375
30
0
42
0.14273568292938665
0
VERTEX
8
0
10
66.80915
20
67.701628125
30
0
0
VERTEX
8
0
10
66.76739375
20
67.664496875
30
0
42
0.0006684388420158373
0
VERTEX
8
0
10
66.766446875
20
67.663553125
30
0
0
VERTEX
8
0
10
65.14949375
20
66.0466
30
0
0
VERTEX
8
0
10
64.814890625
20
66.0466
30
0
0
VERTEX
8
0
10
64.57829062500001
20
65.81
30
0
0
VERTEX
8
0
10
58.231709375
20
65.81
30
0
0
VERTEX
8
0
10
57.995109375000006
20
66.0466
30
0
0
VERTEX
8
0
10
57.384890625000004
20
66.0466
30
0
0
VERTEX
8
0
10
57.148290625
20
65.81
30
0
0
VERTEX
8
0
10
51.84710625
20
65.81
30
0
0
VERTEX
8
0
10
51.303553125
20
66.353553125
30
0
0
VERTEX
8
0
10
51.2838
20
66.3712125
30
0
0
VERTEX
8
0
10
51.263978125
20
66.389125
30
0
42
0.35012812754268074
0
VERTEX
8
0
10
50.6402
20
66.392459375
30
0
0
VERTEX
8
0
10
50.598340625000006
20
66.35543750000001
30
0
42
0.0013357757002785623
0
VERTEX
8
0
10
50.596446875000005
20
66.353553125
30
0
0
VERTEX
8
0
10
50.289493750000005
20
66.0466
30
0
0
VERTEX
8
0
10
49.954890625000004
20
66.0466
30
0
0
VERTEX
8
0
10
49.718290625
20
65.81
30
0
0
VERTEX
8
0
10
43.371709375
20
65.81
30
0
0
VERTEX
8
0
10
43.135109375
20
66.0466
30
0
0
VERTEX
8
0
10
42.800506250000005
20
66.0466
30
0
0
VERTEX
8
0
10
42.493553125000005
20
66.353553125
30
0
0
VERTEX
8
0
10
42.474234375
20
66.370825
30
0
0
VERTEX
8
0
10
42.45501875
20
66.388284375
30
0
42
0.1427356176412374
0
VERTEX
8
0
10
42.19711875
20
66.496728125
30
0
0
VERTEX
8
0
10
42.1413375
20
66.49999687500001
30
0
42
0.0006687526842779185
0
VERTEX
8
0
10
42.14
20
66.5
30
0
0
VERTEX
8
0
10
38
20
66.5
30
0
0
VERTEX
8
0
10
37.973478125
20
66.49851562500001
30
0
0
VERTEX
8
0
10
37.9468625
20
66.49716875
30
0
42
0.3501289138148639
0
VERTEX
8
0
10
37.503428125
20
66.058446875
30
0
0
VERTEX
8
0
10
37.50000625
20
66.002671875
30
0
42
0.0013359422777441622
0
VERTEX
8
0
10
37.5
20
66
30
0
0
VERTEX
8
0
10
37.5
20
42
30
0
0
VERTEX
8
0
10
37.501446875
20
41.97411875
30
0
0
VERTEX
8
0
10
37.502690625
20
41.94819375
30
0
42
0.14273568292938665
0
VERTEX
8
0
10
37.608371875
20
41.689150000000005
30
0
0
VERTEX
8
0
10
37.645503125000005
20
41.64739375
30
0
42
0.0006684388420158373
0
VERTEX
8
0
10
37.646446875
20
41.646446875
30
0
0
VERTEX
8
0
10
41.1698
20
38.12309375
30
0
0
VERTEX
8
0
10
41.1698
20
37.876906250000005
30
0
0
VERTEX
8
0
10
37.392446875000005
20
34.099553125
30
0
0
VERTEX
8
0
10
37.375175
20
34.080234375
30
0
0
VERTEX
8
0
10
37.357715625000004
20
34.06101875
30
0
42
0.1427356176412374
0
VERTEX
8
0
10
37.249271875000005
20
33.80311875
30
0
0
VERTEX
8
0
10
37.246003125
20
33.7473375
30
0
42
0.0006687526842779185
0
VERTEX
8
0
10
37.246
20
33.746
30
0
0
VERTEX
8
0
10
37.246
20
10.644
30
0
0
VERTEX
8
0
10
37.247446875
20
10.61811875
30
0
0
VERTEX
8
0
10
37.248690625
20
10.59219375
30
0
42
0.14273568292938665
0
VERTEX
8
0
10
37.354371875000005
20
10.33315
30
0
0
VERTEX
8
0
10
37.391503125
20
10.291393750000001
30
0
42
0.0006684388420158373
0
VERTEX
8
0
10
37.392446875000005
20
10.290446875
30
0
0
VERTEX
8
0
10
38.178421875000005
20
9.504471875
30
0
0
VERTEX
8
0
10
38.160000000000004
20
9.48605
30
0
0
VERTEX
8
0
10
38.160000000000004
20
8.433950000000001
30
0
0
VERTEX
8
0
10
38.90395
20
7.69
30
0
0
VERTEX
8
0
10
39.956050000000005
20
7.69
30
0
0
SEQEND
0
POLYLINE
66
1
8
16_copper
10
0.0
20
0.0
30
0.0
70
1
0
VERTEX
8
0
10
73.2104
20
67.03645625
30
0
0
VERTEX
8
0
10
73.2104
20
67.58354375
30
0
0
VERTEX
8
0
10
72.82354375
20
67.9704
30
0
0
VERTEX
8
0
10
72.27645625000001
20
67.9704
30
0
0
VERTEX
8
0
10
71.8896
20
67.58354375
30
0
0
VERTEX
8
0
10
71.8896
20
67.03645625
30
0
0
VERTEX
8
0
10
72.27645625000001
20
66.6496
30
0
0
VERTEX
8
0
10
72.82354375
20
66.6496
30
0
0
SEQEND
0
POLYLINE
66
1
8
16_copper
10
0.0
20
0.0
30
0.0
70
1
0
VERTEX
8
0
10
43.4904
20
65.03645625
30
0
0
VERTEX
8
0
10
43.4904
20
65.58354375
30
0
0
VERTEX
8
0
10
43.10354375
20
65.9704
30
0
0
VERTEX
8
0
10
42.556456250000004
20
65.9704
30
0
0
VERTEX
8
0
10
42.1696
20
65.58354375
30
0
0
VERTEX
8
0
10
42.1696
20
65.03645625
30
0
0
VERTEX
8
0
10
42.556456250000004
20
64.6496
30
0
0
VERTEX
8
0
10
43.10354375
20
64.6496
30
0
0
SEQEND
0
POLYLINE
66
1
8
16_copper
10
0.0
20
0.0
30
0.0
70
1
0
VERTEX
8
0
10
50.9204
20
65.03645625
30
0
0
VERTEX
8
0
10
50.9204
20
65.58354375
30
0
0
VERTEX
8
0
10
50.53354375
20
65.9704
30
0
0
VERTEX
8
0
10
49.98645625
20
65.9704
30
0
0
VERTEX
8
0
10
49.5996
20
65.58354375
30
0
0
VERTEX
8
0
10
49.5996
20
65.03645625
30
0
0
VERTEX
8
0
10
49.98645625
20
64.6496
30
0
0
VERTEX
8
0
10
50.53354375
20
64.6496
30
0
0
SEQEND
0
POLYLINE
66
1
8
16_copper
10
0.0
20
0.0
30
0.0
70
1
0
VERTEX
8
0
10
58.3504
20
65.03645625
30
0
0
VERTEX
8
0
10
58.3504
20
65.58354375
30
0
0
VERTEX
8
0
10
57.96354375
20
65.9704
30
0
0
VERTEX
8
0
10
57.41645625
20
65.9704
30
0
0
VERTEX
8
0
10
57.0296
20
65.58354375
30
0
0
VERTEX
8
0
10
57.0296
20
65.03645625
30
0
0
VERTEX
8
0
10
57.41645625
20
64.6496
30
0
0
VERTEX
8
0
10
57.96354375
20
64.6496
30
0
0
SEQEND
0
POLYLINE
66
1
8
16_copper
10
0.0
20
0.0
30
0.0
70
1
0
VERTEX
8
0
10
65.7804
20
65.03645625
30
0
0
VERTEX
8
0
10
65.7804
20
65.58354375
30
0
0
VERTEX
8
0
10
65.39354375
20
65.9704
30
0
0
VERTEX
8
0
10
64.84645625
20
65.9704
30
0
0
VERTEX
8
0
10
64.45960000000001
20
65.58354375
30
0
0
VERTEX
8
0
10
64.45960000000001
20
65.03645625
30
0
0
VERTEX
8
0
10
64.84645625
20
64.6496
30
0
0
VERTEX
8
0
10
65.39354375
20
64.6496
30
0
0
SEQEND
0
POLYLINE
66
1
8
16_copper
10
0.0
20
0.0
30
0.0
70
1
0
VERTEX
8
0
10
80.6404
20
65.03645625
30
0
0
VERTEX
8
0
10
80.6404
20
65.58354375
30
0
0
VERTEX
8
0
10
80.25354375
20
65.9704
30
0
0
VERTEX
8
0
10
79.70645625
20
65.9704
30
0
0
VERTEX
8
0
10
79.31960000000001
20
65.58354375
30
0
0
VERTEX
8
0
10
79.31960000000001
20
65.03645625
30
0
0
VERTEX
8
0
10
79.70645625
20
64.6496
30
0
0
VERTEX
8
0
10
80.25354375
20
64.6496
30
0
0
SEQEND
0
POLYLINE
66
1
8
16_copper
10
0.0
20
0.0
30
0.0
70
1
0
VERTEX
8
0
10
88.0704
20
65.03645625
30
0
0
VERTEX
8
0
10
88.0704
20
65.58354375
30
0
0
VERTEX
8
0
10
87.68354375
20
65.9704
30
0
0
VERTEX
8
0
10
87.13645625000001
20
65.9704
30
0
0
VERTEX
8
0
10
86.7496
20
65.58354375
30
0
0
VERTEX
8
0
10
86.7496
20
65.03645625
30
0
0
VERTEX
8
0
10
87.13645625000001
20
64.6496
30
0
0
VERTEX
8
0
10
87.68354375
20
64.6496
30
0
0
SEQEND
0
POLYLINE
66
1
8
16_copper
10
0.0
20
0.0
30
0.0
70
1
0
VERTEX
8
0
10
51.436078125
20
36.608296875
30
0
42
0.3578058919557322
0
VERTEX
8
0
10
51.994
20
37.223871875
30
0
0
VERTEX
8
0
10
51.994
20
38.596128125
30
0
0
VERTEX
8
0
10
51.987703125
20
38.660078125000005
30
0
42
0.9063474445600833
0
VERTEX
8
0
10
50.686
20
38.596128125
30
0
0
VERTEX
8
0
10
50.686
20
37.223871875
30
0
0
VERTEX
8
0
10
50.692296875000004
20
37.159921875
30
0
42
0.3857420086717843
0
VERTEX
8
0
10
51.372128125
20
36.602000000000004
30
0
0
SEQEND
0
POLYLINE
66
1
8
16_copper
10
0.0
20
0.0
30
0.0
70
1
0
VERTEX
8
0
10
42.754000000000005
20
37.687684375
30
0
0
VERTEX
8
0
10
42.754000000000005
20
38.312315625000004
30
0
0
VERTEX
8
0
10
42.312315625000004
20
38.754000000000005
30
0
0
VERTEX
8
0
10
41.687684375
20
38.754000000000005
30
0
0
VERTEX
8
0
10
41.246
20
38.312315625000004
30
0
0
VERTEX
8
0
10
41.246
20
37.687684375
30
0
0
VERTEX
8
0
10
41.687684375
20
37.246
30
0
0
VERTEX
8
0
10
42.312315625000004
20
37.246
30
0
0
SEQEND
0
POLYLINE
66
1
8
16_copper
10
0.0
20
0.0
30
0.0
70
1
0
VERTEX
8
0
10
40.7
20
8.433950000000001
30
0
0
VERTEX
8
0
10
40.7
20
9.48605
30
0
0
VERTEX
8
0
10
39.956050000000005
20
10.23
30
0
0
VERTEX
8
0
10
38.90395
20
10.23
30
0
0
VERTEX
8
0
10
38.160000000000004
20
9.48605
30
0
0
VERTEX
8
0
10
38.160000000000004
20
8.433950000000001
30
0
0
VERTEX
8
0
10
38.90395
20
7.69
30
0
0
VERTEX
8
0
10
39.956050000000005
20
7.69
30
0
0
SEQEND
0
POLYLINE
66
1
8
1_copper
10
0.0
20
0.0
30
0.0
70
1
0
VERTEX
8
0
10
55.235881250000006
20
-0.49855312500000004
30
0
0
VERTEX
8
0
10
55.26180625
20
-0.497309375
30
0
42
0.14273568292938665
0
VERTEX
8
0
10
55.52085
20
-0.391628125
30
0
0
VERTEX
8
0
10
55.56260625
20
-0.35449687500000004
30
0
42
0.0006684388420158373
0
VERTEX
8
0
10
55.563553125000006
20
-0.353553125
30
0
0
VERTEX
8
0
10
56.07050625
20
0.1534
30
0
0
VERTEX
8
0
10
56.405109375
20
0.1534
30
0
0
VERTEX
8
0
10
56.641709375000005
20
0.39
30
0
0
VERTEX
8
0
10
61.178290625
20
0.39
30
0
0
VERTEX
8
0
10
61.414890625000005
20
0.1534
30
0
0
VERTEX
8
0
10
62.025109375
20
0.1534
30
0
0
VERTEX
8
0
10
62.261709375
20
0.39
30
0
0
VERTEX
8
0
10
67.338290625
20
0.39
30
0
0
VERTEX
8
0
10
67.57489062500001
20
0.1534
30
0
0
VERTEX
8
0
10
68.18510937500001
20
0.1534
30
0
0
VERTEX
8
0
10
68.421709375
20
0.39
30
0
0
VERTEX
8
0
10
71.49829062500001
20
0.39
30
0
0
VERTEX
8
0
10
71.734890625
20
0.1534
30
0
0
VERTEX
8
0
10
72.345109375
20
0.1534
30
0
0
VERTEX
8
0
10
72.581709375
20
0.39
30
0
0
VERTEX
8
0
10
77.848290625
20
0.39
30
0
0
VERTEX
8
0
10
78.084890625
20
0.1534
30
0
0
VERTEX
8
0
10
78.695109375
20
0.1534
30
0
0
VERTEX
8
0
10
78.931709375
20
0.39
30
0
0
VERTEX
8
0
10
84.198290625
20
0.39
30
0
0
VERTEX
8
0
10
84.43489062500001
20
0.1534
30
0
0
VERTEX
8
0
10
85.04510937500001
20
0.1534
30
0
0
VERTEX
8
0
10
85.4766
20
0.584890625
30
0
0
VERTEX
8
0
10
85.4766
20
0.91949375
30
0
0
VERTEX
8
0
10
86.21710625
20
1.6600000000000001
30
0
0
VERTEX
8
0
10
89.788290625
20
1.6600000000000001
30
0
0
VERTEX
8
0
10
90.024890625
20
1.4234
30
0
0
VERTEX
8
0
10
90.635109375
20
1.4234
30
0
0
VERTEX
8
0
10
91.06660000000001
20
1.8548906250000001
30
0
0
VERTEX
8
0
10
91.06660000000001
20
2.465109375
30
0
0
VERTEX
8
0
10
90.635109375
20
2.8966000000000003
30
0
0
VERTEX
8
0
10
90.024890625
20
2.8966000000000003
30
0
0
VERTEX
8
0
10
89.788290625
20
2.66
30
0
0
VERTEX
8
0
10
86.01
20
2.66
30
0
0
VERTEX
8
0
10
85.98411875000001
20
2.658553125
30
0
0
VERTEX
8
0
10
85.95819375
20
2.657309375
30
0
42
0.14273568292938665
0
VERTEX
8
0
10
85.69915
20
2.551628125
30
0
0
VERTEX
8
0
10
85.65739375
20
2.5144968750000003
30
0
42
0.0006684388420158373
0
VERTEX
8
0
10
85.656446875
20
2.513553125
30
0
0
VERTEX
8
0
10
84.76949375000001
20
1.6266
30
0
0
VERTEX
8
0
10
84.43489062500001
20
1.6266
30
0
0
VERTEX
8
0
10
84.198290625
20
1.3900000000000001
30
0
0
VERTEX
8
0
10
78.931709375
20
1.3900000000000001
30
0
0
VERTEX
8
0
10
78.695109375
20
1.6266
30
0
0
VERTEX
8
0
10
78.084890625
20
1.6266
30
0
0
VERTEX
8
0
10
77.848290625
20
1.3900000000000001
30
0
0
VERTEX
8
0
10
72.581709375
20
1.3900000000000001
30
0
0
VERTEX
8
0
10
72.345109375
20
1.6266
30
0
0
VERTEX
8
0
10
71.734890625
20
1.6266
30
0
0
VERTEX
8
0
10
71.49829062500001
20
1.3900000000000001
30
0
0
VERTEX
8
0
10
68.421709375
20
1.3900000000000001
30
0
0
VERTEX
8
0
10
68.18510937500001
20
1.6266
30
0
0
VERTEX
8
0
10
67.57489062500001
20
1.6266
30
0
0
VERTEX
8
0
10
67.338290625
20
1.3900000000000001
30
0
0
VERTEX
8
0
10
62.261709375
20
1.3900000000000001
30
0
0
VERTEX
8
0
10
62.025109375
20
1.6266
30
0
0
VERTEX
8
0
10
61.414890625000005
20
1.6266
30
0
0
VERTEX
8
0
10
61.178290625
20
1.3900000000000001
30
0
0
VERTEX
8
0
10
56.641709375000005
20
1.3900000000000001
30
0
0
VERTEX
8
0
10
56.405109375
20
1.6266
30
0
0
VERTEX
8
0
10
55.794890625
20
1.6266
30
0
0
VERTEX
8
0
10
55.363400000000006
20
1.1951093750000001
30
0
0
VERTEX
8
0
10
55.363400000000006
20
0.86050625
30
0
0
VERTEX
8
0
10
55.002893750000005
20
0.5
30
0
0
VERTEX
8
0
10
54.5
20
0.5
30
0
0
VERTEX
8
0
10
54.5
20
0.60525625
30
0
0
VERTEX
8
0
10
54.607553125
20
0.7128093750000001
30
0
42
0.1693185362340056
0
VERTEX
8
0
10
54.750728125
20
1.00924375
30
0
0
VERTEX
8
0
10
54.753996875000006
20
1.065025
30
0
42
0.0006687526842779185
0
VERTEX
8
0
10
54.754000000000005
20
1.0663625
30
0
0
VERTEX
8
0
10
54.754000000000005
20
2.9336375
30
0
0
VERTEX
8
0
10
54.752553125000006
20
2.95951875
30
0
0
VERTEX
8
0
10
54.751309375000005
20
2.98544375
30
0
42
0.14273568292938665
0
VERTEX
8
0
10
54.645628125
20
3.2444875
30
0
0
VERTEX
8
0
10
54.608496875
20
3.28624375
30
0
42
0.0006684388420158373
0
VERTEX
8
0
10
54.607553125
20
3.287190625
30
0
0
VERTEX
8
0
10
52.439600000000006
20
5.45514375
30
0
0
VERTEX
8
0
10
52.439600000000006
20
12.48486875
30
0
0
VERTEX
8
0
10
52.438153125
20
12.51075
30
0
0
VERTEX
8
0
10
52.436909375
20
12.536675
30
0
42
0.14273568292938665
0
VERTEX
8
0
10
52.331228125
20
12.79571875
30
0
0
VERTEX
8
0
10
52.294096875
20
12.837475000000001
30
0
42
0.0006684388420158373
0
VERTEX
8
0
10
52.293153125
20
12.838421875
30
0
0
VERTEX
8
0
10
50.5
20
14.631575000000002
30
0
0
VERTEX
8
0
10
50.5
20
17.79289375
30
0
0
VERTEX
8
0
10
51.7096
20
19.00249375
30
0
0
VERTEX
8
0
10
53.065646875000006
20
17.646446875000002
30
0
0
VERTEX
8
0
10
53.084965625
20
17.629175
30
0
0
VERTEX
8
0
10
53.10418125
20
17.611715625000002
30
0
42
0.1427356176412374
0
VERTEX
8
0
10
53.36208125
20
17.503271875
30
0
0
VERTEX
8
0
10
53.417862500000005
20
17.500003125
30
0
42
0.0006687526842779185
0
VERTEX
8
0
10
53.419200000000004
20
17.5
30
0
0
VERTEX
8
0
10
55.92
20
17.5
30
0
0
VERTEX
8
0
10
55.94588125
20
17.501446875
30
0
0
VERTEX
8
0
10
55.97180625
20
17.502690625
30
0
42
0.14273568292938665
0
VERTEX
8
0
10
56.230850000000004
20
17.608371875
30
0
0
VERTEX
8
0
10
56.27260625
20
17.645503125
30
0
42
0.0006684388420158373
0
VERTEX
8
0
10
56.273553125
20
17.646446875000002
30
0
0
VERTEX
8
0
10
59.313553125000006
20
20.686446875
30
0
0
VERTEX
8
0
10
59.330825000000004
20
20.705765625
30
0
0
VERTEX
8
0
10
59.348284375000006
20
20.724981250000003
30
0
42
0.1427356176412374
0
VERTEX
8
0
10
59.456728125000005
20
20.982881250000002
30
0
0
VERTEX
8
0
10
59.459996875
20
21.0386625
30
0
42
0.0006687526842779185
0
VERTEX
8
0
10
59.46
20
21.040000000000003
30
0
0
VERTEX
8
0
10
59.46
20
21.40714375
30
0
0
VERTEX
8
0
10
59.50169375
20
21.4488375
30
0
42
0.17351662862968317
0
VERTEX
8
0
10
59.690200000000004
20
21.903928125
30
0
0
VERTEX
8
0
10
59.690200000000004
20
23.436071875
30
0
0
VERTEX
8
0
10
59.68316875
20
23.507471875
30
0
42
0.9063475582535283
0
VERTEX
8
0
10
58.229800000000004
20
23.436071875
30
0
0
VERTEX
8
0
10
58.229800000000004
20
21.903928125
30
0
0
VERTEX
8
0
10
58.23683125
20
21.832528125
30
0
42
0.14833598864046654
0
VERTEX
8
0
10
58.41830625
20
21.4488375
30
0
0
VERTEX
8
0
10
58.46
20
21.40714375
30
0
0
VERTEX
8
0
10
58.46
20
21.24710625
30
0
0
VERTEX
8
0
10
55.71289375
20
18.5
30
0
0
VERTEX
8
0
10
53.626306250000006
20
18.5
30
0
0
VERTEX
8
0
10
52.063153125
20
20.063153125
30
0
0
VERTEX
8
0
10
52.043400000000005
20
20.0808125
30
0
0
VERTEX
8
0
10
52.023578125
20
20.098725
30
0
42
0.35012812754268074
0
VERTEX
8
0
10
51.3998
20
20.102059375
30
0
0
VERTEX
8
0
10
51.357940625000005
20
20.065037500000003
30
0
42
0.0013357757002785623
0
VERTEX
8
0
10
51.356046875000004
20
20.063153125
30
0
0
VERTEX
8
0
10
49.646446875
20
18.353553125
30
0
0
VERTEX
8
0
10
49.629175000000004
20
18.334234375
30
0
0
VERTEX
8
0
10
49.611715625
20
18.31501875
30
0
42
0.1427356176412374
0
VERTEX
8
0
10
49.503271875
20
18.05711875
30
0
0
VERTEX
8
0
10
49.500003125
20
18.0013375
30
0
42
0.0006687526842779185
0
VERTEX
8
0
10
49.5
20
18
30
0
0
VERTEX
8
0
10
49.5
20
14.42446875
30
0
0
VERTEX
8
0
10
49.501446875
20
14.398587500000001
30
0
0
VERTEX
8
0
10
49.502690625
20
14.3726625
30
0
42
0.14273568292938665
0
VERTEX
8
0
10
49.608371875
20
14.11361875
30
0
0
VERTEX
8
0
10
49.645503125000005
20
14.0718625
30
0
42
0.0006684388420158373
0
VERTEX
8
0
10
49.646446875
20
14.070915625000001
30
0
0
VERTEX
8
0
10
51.439600000000006
20
12.277762500000001
30
0
0
VERTEX
8
0
10
51.439600000000006
20
5.248037500000001
30
0
0
VERTEX
8
0
10
51.441046875000005
20
5.22215625
30
0
0
VERTEX
8
0
10
51.442290625000005
20
5.19623125
30
0
42
0.14273568292938665
0
VERTEX
8
0
10
51.547971875
20
4.9371875
30
0
0
VERTEX
8
0
10
51.585103125
20
4.895431250000001
30
0
42
0.0006684388420158373
0
VERTEX
8
0
10
51.586046875
20
4.894484375
30
0
0
VERTEX
8
0
10
53.754000000000005
20
2.7265312500000003
30
0
0
VERTEX
8
0
10
53.754000000000005
20
1.2734687500000001
30
0
0
VERTEX
8
0
10
53.646446875
20
1.165915625
30
0
42
0.1693185362340056
0
VERTEX
8
0
10
53.503271875
20
0.8694812500000001
30
0
0
VERTEX
8
0
10
53.500003125
20
0.8137000000000001
30
0
42
0.0006687526842779185
0
VERTEX
8
0
10
53.5
20
0.8123625
30
0
0
VERTEX
8
0
10
53.5
20
0
30
0
0
VERTEX
8
0
10
53.501484375000004
20
-0.026521875
30
0
0
VERTEX
8
0
10
53.50283125
20
-0.053137500000000004
30
0
42
0.3501289138148639
0
VERTEX
8
0
10
53.941553125000006
20
-0.49657187500000005
30
0
0
VERTEX
8
0
10
53.997328125
20
-0.49999375
30
0
42
0.0013359422777441622
0
VERTEX
8
0
10
54
20
-0.5
30
0
0
VERTEX
8
0
10
55.21
20
-0.5
30
0
0
SEQEND
0
POLYLINE
66
1
8
16_copper
10
0.0
20
0.0
30
0.0
70
1
0
VERTEX
8
0
10
59.056078125000006
20
21.368296875000002
30
0
42
0.3578058919557322
0
VERTEX
8
0
10
59.614000000000004
20
21.983871875000002
30
0
0
VERTEX
8
0
10
59.614000000000004
20
23.356128125
30
0
0
VERTEX
8
0
10
59.607703125
20
23.420078125
30
0
42
0.9063474445600833
0
VERTEX
8
0
10
58.306000000000004
20
23.356128125
30
0
0
VERTEX
8
0
10
58.306000000000004
20
21.983871875000002
30
0
0
VERTEX
8
0
10
58.312296875
20
21.919921875
30
0
42
0.3857420086717843
0
VERTEX
8
0
10
58.992128125
20
21.362000000000002
30
0
0
SEQEND
0
POLYLINE
66
1
8
16_copper
10
0.0
20
0.0
30
0.0
70
1
0
VERTEX
8
0
10
90.99040000000001
20
1.8864562500000002
30
0
0
VERTEX
8
0
10
90.99040000000001
20
2.43354375
30
0
0
VERTEX
8
0
10
90.60354375
20
2.8204000000000002
30
0
0
VERTEX
8
0
10
90.05645625000001
20
2.8204000000000002
30
0
0
VERTEX
8
0
10
89.6696
20
2.43354375
30
0
0
VERTEX
8
0
10
89.6696
20
1.8864562500000002
30
0
0
VERTEX
8
0
10
90.05645625000001
20
1.4996
30
0
0
VERTEX
8
0
10
90.60354375
20
1.4996
30
0
0
SEQEND
0
POLYLINE
66
1
8
16_copper
10
0.0
20
0.0
30
0.0
70
1
0
VERTEX
8
0
10
85.4004
20
0.61645625
30
0
0
VERTEX
8
0
10
85.4004
20
1.16354375
30
0
0
VERTEX
8
0
10
85.01354375000001
20
1.5504
30
0
0
VERTEX
8
0
10
84.46645625000001
20
1.5504
30
0
0
VERTEX
8
0
10
84.0796
20
1.16354375
30
0
0
VERTEX
8
0
10
84.0796
20
0.61645625
30
0
0
VERTEX
8
0
10
84.46645625000001
20
0.2296
30
0
0
VERTEX
8
0
10
85.01354375000001
20
0.2296
30
0
0
SEQEND
0
POLYLINE
66
1
8
16_copper
10
0.0
20
0.0
30
0.0
70
1
0
VERTEX
8
0
10
79.05040000000001
20
0.61645625
30
0
0
VERTEX
8
0
10
79.05040000000001
20
1.16354375
30
0
0
VERTEX
8
0
10
78.66354375
20
1.5504
30
0
0
VERTEX
8
0
10
78.11645625
20
1.5504
30
0
0
VERTEX
8
0
10
77.7296
20
1.16354375
30
0
0
VERTEX
8
0
10
77.7296
20
0.61645625
30
0
0
VERTEX
8
0
10
78.11645625
20
0.2296
30
0
0
VERTEX
8
0
10
78.66354375
20
0.2296
30
0
0
SEQEND
0
POLYLINE
66
1
8
16_copper
10
0.0
20
0.0
30
0.0
70
1
0
VERTEX
8
0
10
72.7004
20
0.61645625
30
0
0
VERTEX
8
0
10
72.7004
20
1.16354375
30
0
0
VERTEX
8
0
10
72.31354375000001
20
1.5504
30
0
0
VERTEX
8
0
10
71.76645625
20
1.5504
30
0
0
VERTEX
8
0
10
71.3796
20
1.16354375
30
0
0
VERTEX
8
0
10
71.3796
20
0.61645625
30
0
0
VERTEX
8
0
10
71.76645625
20
0.2296
30
0
0
VERTEX
8
0
10
72.31354375000001
20
0.2296
30
0
0
SEQEND
0
POLYLINE
66
1
8
16_copper
10
0.0
20
0.0
30
0.0
70
1
0
VERTEX
8
0
10
68.5404
20
0.61645625
30
0
0
VERTEX
8
0
10
68.5404
20
1.16354375
30
0
0
VERTEX
8
0
10
68.15354375
20
1.5504
30
0
0
VERTEX
8
0
10
67.60645625000001
20
1.5504
30
0
0
VERTEX
8
0
10
67.2196
20
1.16354375
30
0
0
VERTEX
8
0
10
67.2196
20
0.61645625
30
0
0
VERTEX
8
0
10
67.60645625000001
20
0.2296
30
0
0
VERTEX
8
0
10
68.15354375
20
0.2296
30
0
0
SEQEND
0
POLYLINE
66
1
8
16_copper
10
0.0
20
0.0
30
0.0
70
1
0
VERTEX
8
0
10
62.3804
20
0.61645625
30
0
0
VERTEX
8
0
10
62.3804
20
1.16354375
30
0
0
VERTEX
8
0
10
61.99354375
20
1.5504
30
0
0
VERTEX
8
0
10
61.446456250000004
20
1.5504
30
0
0
VERTEX
8
0
10
61.0596
20
1.16354375
30
0
0
VERTEX
8
0
10
61.0596
20
0.61645625
30
0
0
VERTEX
8
0
10
61.446456250000004
20
0.2296
30
0
0
VERTEX
8
0
10
61.99354375
20
0.2296
30
0
0
SEQEND
0
POLYLINE
66
1
8
16_copper
10
0.0
20
0.0
30
0.0
70
1
0
VERTEX
8
0
10
56.760400000000004
20
0.61645625
30
0
0
VERTEX
8
0
10
56.760400000000004
20
1.16354375
30
0
0
VERTEX
8
0
10
56.37354375
20
1.5504
30
0
0
VERTEX
8
0
10
55.82645625
20
1.5504
30
0
0
VERTEX
8
0
10
55.439600000000006
20
1.16354375
30
0
0
VERTEX
8
0
10
55.439600000000006
20
0.61645625
30
0
0
VERTEX
8
0
10
55.82645625
20
0.2296
30
0
0
VERTEX
8
0
10
56.37354375
20
0.2296
30
0
0
SEQEND
0
POLYLINE
66
1
8
1_copper
10
0.0
20
0.0
30
0.0
70
1
0
VERTEX
8
0
10
81.927271875
20
21.216631250000002
30
0
42
0.35780596236554063
0
VERTEX
8
0
10
82.5502
20
21.903928125
30
0
0
VERTEX
8
0
10
82.5502
20
23.436071875
30
0
0
VERTEX
8
0
10
82.54316875
20
23.507471875
30
0
42
0.14833598864046654
0
VERTEX
8
0
10
82.36169375
20
23.8911625
30
0
0
VERTEX
8
0
10
82.32000000000001
20
23.93285625
30
0
0
VERTEX
8
0
10
82.32000000000001
20
25.5
30
0
0
VERTEX
8
0
10
87.9
20
25.5
30
0
0
VERTEX
8
0
10
87.926521875
20
25.501484375
30
0
0
VERTEX
8
0
10
87.95313750000001
20
25.50283125
30
0
42
0.3501289138148639
0
VERTEX
8
0
10
88.396571875
20
25.941553125000002
30
0
0
VERTEX
8
0
10
88.39999375000001
20
25.997328125000003
30
0
42
0.0013359422777441622
0
VERTEX
8
0
10
88.4
20
26
30
0
0
VERTEX
8
0
10
88.4
20
39.230000000000004
30
0
0
VERTEX
8
0
10
88.398553125
20
39.25588125
30
0
0
VERTEX
8
0
10
88.397309375
20
39.28180625
30
0
42
0.14273568292938665
0
VERTEX
8
0
10
88.291628125
20
39.54085
30
0
0
VERTEX
8
0
10
88.254496875
20
39.582606250000005
30
0
42
0.0006684388420158373
0
VERTEX
8
0
10
88.25355312500001
20
39.583553125
30
0
0
VERTEX
8
0
10
86.87660000000001
20
40.96050625
30
0
0
VERTEX
8
0
10
86.87660000000001
20
41.295109375
30
0
0
VERTEX
8
0
10
86.445109375
20
41.726600000000005
30
0
0
VERTEX
8
0
10
85.834890625
20
41.726600000000005
30
0
0
VERTEX
8
0
10
85.4034
20
41.295109375
30
0
0
VERTEX
8
0
10
85.4034
20
40.684890625
30
0
0
VERTEX
8
0
10
85.834890625
20
40.2534
30
0
0
VERTEX
8
0
10
86.16949375
20
40.2534
30
0
0
VERTEX
8
0
10
87.4
20
39.02289375
30
0
0
VERTEX
8
0
10
87.4
20
26.5
30
0
0
VERTEX
8
0
10
82
20
26.5
30
0
0
VERTEX
8
0
10
81.97411875
20
26.498553125
30
0
0
VERTEX
8
0
10
81.94819375
20
26.497309375
30
0
42
0.14273568292938665
0
VERTEX
8
0
10
81.68915
20
26.391628125
30
0
0
VERTEX
8
0
10
81.64739375
20
26.354496875000002
30
0
42
0.0006684388420158373
0
VERTEX
8
0
10
81.64644687500001
20
26.353553125
30
0
0
VERTEX
8
0
10
81.466446875
20
26.173553125
30
0
0
VERTEX
8
0
10
81.44917500000001
20
26.154234375
30
0
0
VERTEX
8
0
10
81.43171562500001
20
26.13501875
30
0
42
0.1427356176412374
0
VERTEX
8
0
10
81.323271875
20
25.87711875
30
0
0
VERTEX
8
0
10
81.320003125
20
25.821337500000002
30
0
42
0.0006687526842779185
0
VERTEX
8
0
10
81.32000000000001
20
25.82
30
0
0
VERTEX
8
0
10
81.32000000000001
20
23.93285625
30
0
0
VERTEX
8
0
10
81.27830625
20
23.8911625
30
0
42
0.17351662862968317
0
VERTEX
8
0
10
81.08980000000001
20
23.436071875
30
0
0
VERTEX
8
0
10
81.08980000000001
20
21.903928125
30
0
0
VERTEX
8
0
10
81.09683125000001
20
21.832528125
30
0
42
0.3857423796044815
0
VERTEX
8
0
10
81.855871875
20
21.209600000000002
30
0
0
SEQEND
0
POLYLINE
66
1
8
16_copper
10
0.0
20
0.0
30
0.0
70
1
0
VERTEX
8
0
10
86.80040000000001
20
40.71645625
30
0
0
VERTEX
8
0
10
86.80040000000001
20
41.263543750000004
30
0
0
VERTEX
8
0
10
86.41354375
20
41.650400000000005
30
0
0
VERTEX
8
0
10
85.86645625
20
41.650400000000005
30
0
0
VERTEX
8
0
10
85.4796
20
41.263543750000004
30
0
0
VERTEX
8
0
10
85.4796
20
40.71645625
30
0
0
VERTEX
8
0
10
85.86645625
20
40.3296
30
0
0
VERTEX
8
0
10
86.41354375
20
40.3296
30
0
0
SEQEND
0
POLYLINE
66
1
8
16_copper
10
0.0
20
0.0
30
0.0
70
1
0
VERTEX
8
0
10
81.916078125
20
21.368296875000002
30
0
42
0.3578058919557322
0
VERTEX
8
0
10
82.474
20
21.983871875000002
30
0
0
VERTEX
8
0
10
82.474
20
23.356128125
30
0
0
VERTEX
8
0
10
82.467703125
20
23.420078125
30
0
42
0.9063474445600833
0
VERTEX
8
0
10
81.166
20
23.356128125
30
0
0
VERTEX
8
0
10
81.166
20
21.983871875000002
30
0
0
VERTEX
8
0
10
81.172296875
20
21.919921875
30
0
42
0.3857420086717843
0
VERTEX
8
0
10
81.85212812500001
20
21.362000000000002
30
0
0
SEQEND
0
POLYLINE
66
1
8
1_copper
10
0.0
20
0.0
30
0.0
70
1
0
VERTEX
8
0
10
84.46727187500001
20
21.216631250000002
30
0
42
0.35780596236554063
0
VERTEX
8
0
10
85.09020000000001
20
21.903928125
30
0
0
VERTEX
8
0
10
85.09020000000001
20
22.17
30
0
0
VERTEX
8
0
10
88.67
20
22.17
30
0
0
VERTEX
8
0
10
88.69588125
20
22.171446875
30
0
0
VERTEX
8
0
10
88.72180625
20
22.172690625
30
0
42
0.14273568292938665
0
VERTEX
8
0
10
88.98085
20
22.278371875
30
0
0
VERTEX
8
0
10
89.02260625000001
20
22.315503125
30
0
42
0.0006684388420158373
0
VERTEX
8
0
10
89.023553125
20
22.316446875
30
0
0
VERTEX
8
0
10
90.353553125
20
23.646446875000002
30
0
0
VERTEX
8
0
10
90.37082500000001
20
23.665765625000002
30
0
0
VERTEX
8
0
10
90.388284375
20
23.68498125
30
0
42
0.1427356176412374
0
VERTEX
8
0
10
90.496728125
20
23.942881250000003
30
0
0
VERTEX
8
0
10
90.49999687500001
20
23.998662500000002
30
0
42
0.0006687526842779185
0
VERTEX
8
0
10
90.5
20
24
30
0
0
VERTEX
8
0
10
90.5
20
46
30
0
0
VERTEX
8
0
10
90.498553125
20
46.025881250000005
30
0
0
VERTEX
8
0
10
90.497309375
20
46.051806250000006
30
0
42
0.14273568292938665
0
VERTEX
8
0
10
90.39162812500001
20
46.31085
30
0
0
VERTEX
8
0
10
90.35449687500001
20
46.35260625
30
0
42
0.0006684388420158373
0
VERTEX
8
0
10
90.353553125
20
46.353553125000005
30
0
0
VERTEX
8
0
10
88.353553125
20
48.353553125000005
30
0
0
VERTEX
8
0
10
88.33423437500001
20
48.370825
30
0
0
VERTEX
8
0
10
88.31501875000001
20
48.388284375000005
30
0
42
0.1427356176412374
0
VERTEX
8
0
10
88.05711875
20
48.496728125000004
30
0
0
VERTEX
8
0
10
88.0013375
20
48.499996875
30
0
42
0.0006687526842779185
0
VERTEX
8
0
10
88
20
48.5
30
0
0
VERTEX
8
0
10
84
20
48.5
30
0
0
VERTEX
8
0
10
83.97411875
20
48.498553125
30
0
0
VERTEX
8
0
10
83.94819375
20
48.497309375
30
0
42
0.14273568292938665
0
VERTEX
8
0
10
83.68915
20
48.391628125000004
30
0
0
VERTEX
8
0
10
83.64739375
20
48.354496875
30
0
42
0.0006684388420158373
0
VERTEX
8
0
10
83.64644687500001
20
48.353553125000005
30
0
0
VERTEX
8
0
10
82.356446875
20
47.063553125000006
30
0
0
VERTEX
8
0
10
82.339175
20
47.044234375
30
0
0
VERTEX
8
0
10
82.32171562500001
20
47.02501875
30
0
42
0.1427356176412374
0
VERTEX
8
0
10
82.213271875
20
46.76711875
30
0
0
VERTEX
8
0
10
82.210003125
20
46.7113375
30
0
42
0.0006687526842779185
0
VERTEX
8
0
10
82.21000000000001
20
46.71
30
0
0
VERTEX
8
0
10
82.21000000000001
20
43.531709375000005
30
0
0
VERTEX
8
0
10
81.9734
20
43.295109375
30
0
0
VERTEX
8
0
10
81.9734
20
42.684890625
30
0
0
VERTEX
8
0
10
82.40489062500001
20
42.2534
30
0
0
VERTEX
8
0
10
83.01510937500001
20
42.2534
30
0
0
VERTEX
8
0
10
83.4466
20
42.684890625
30
0
0
VERTEX
8
0
10
83.4466
20
43.295109375
30
0
0
VERTEX
8
0
10
83.21000000000001
20
43.531709375000005
30
0
0
VERTEX
8
0
10
83.21000000000001
20
46.502893750000005
30
0
0
VERTEX
8
0
10
84.20710625000001
20
47.5
30
0
0
VERTEX
8
0
10
87.79289375
20
47.5
30
0
0
VERTEX
8
0
10
89.5
20
45.792893750000005
30
0
0
VERTEX
8
0
10
89.5
20
24.207106250000002
30
0
0
VERTEX
8
0
10
88.46289375
20
23.17
30
0
0
VERTEX
8
0
10
85.09020000000001
20
23.17
30
0
0
VERTEX
8
0
10
85.09020000000001
20
23.436071875
30
0
0
VERTEX
8
0
10
85.08316875
20
23.507471875
30
0
42
0.9063475582535283
0
VERTEX
8
0
10
83.6298
20
23.436071875
30
0
0
VERTEX
8
0
10
83.6298
20
21.903928125
30
0
0
VERTEX
8
0
10
83.63683125
20
21.832528125
30
0
42
0.3857423796044815
0
VERTEX
8
0
10
84.395871875
20
21.209600000000002
30
0
0
SEQEND
0
POLYLINE
66
1
8
16_copper
10
0.0
20
0.0
30
0.0
70
1
0
VERTEX
8
0
10
83.3704
20
42.71645625
30
0
0
VERTEX
8
0
10
83.3704
20
43.263543750000004
30
0
0
VERTEX
8
0
10
82.98354375000001
20
43.650400000000005
30
0
0
VERTEX
8
0
10
82.43645625
20
43.650400000000005
30
0
0
VERTEX
8
0
10
82.0496
20
43.263543750000004
30
0
0
VERTEX
8
0
10
82.0496
20
42.71645625
30
0
0
VERTEX
8
0
10
82.43645625
20
42.3296
30
0
0
VERTEX
8
0
10
82.98354375000001
20
42.3296
30
0
0
SEQEND
0
POLYLINE
66
1
8
16_copper
10
0.0
20
0.0
30
0.0
70
1
0
VERTEX
8
0
10
84.456078125
20
21.368296875000002
30
0
42
0.3578058919557322
0
VERTEX
8
0
10
85.01400000000001
20
21.983871875000002
30
0
0
VERTEX
8
0
10
85.01400000000001
20
23.356128125
30
0
0
VERTEX
8
0
10
85.007703125
20
23.420078125
30
0
42
0.9063474445600833
0
VERTEX
8
0
10
83.706
20
23.356128125
30
0
0
VERTEX
8
0
10
83.706
20
21.983871875000002
30
0
0
VERTEX
8
0
10
83.712296875
20
21.919921875
30
0
42
0.3857420086717843
0
VERTEX
8
0
10
84.392128125
20
21.362000000000002
30
0
0
SEQEND
0
POLYLINE
66
1
8
1_copper
10
0.0
20
0.0
30
0.0
70
1
0
VERTEX
8
0
10
76.847271875
20
36.45663125
30
0
42
0.35780596236554063
0
VERTEX
8
0
10
77.4702
20
37.143928125
30
0
0
VERTEX
8
0
10
77.4702
20
38.676071875000005
30
0
0
VERTEX
8
0
10
77.46316875000001
20
38.747471875
30
0
42
0.14833598864046654
0
VERTEX
8
0
10
77.28169375
20
39.1311625
30
0
0
VERTEX
8
0
10
77.24000000000001
20
39.17285625
30
0
0
VERTEX
8
0
10
77.24000000000001
20
41.904731250000005
30
0
0
VERTEX
8
0
10
77.23855625
20
41.93053125
30
0
0
VERTEX
8
0
10
77.23730937500001
20
41.9565375
30
0
42
0.1122866857789585
0
VERTEX
8
0
10
77.16598125
20
42.166531250000006
30
0
0
VERTEX
8
0
10
77.16502187500001
20
42.167915625
30
0
0
VERTEX
8
0
10
79.25050625
20
44.2534
30
0
0
VERTEX
8
0
10
79.585109375
20
44.2534
30
0
0
VERTEX
8
0
10
80.0166
20
44.684890625
30
0
0
VERTEX
8
0
10
80.0166
20
45.295109375
30
0
0
VERTEX
8
0
10
79.585109375
20
45.726600000000005
30
0
0
VERTEX
8
0
10
78.974890625
20
45.726600000000005
30
0
0
VERTEX
8
0
10
78.5434
20
45.295109375
30
0
0
VERTEX
8
0
10
78.5434
20
44.96050625
30
0
0
VERTEX
8
0
10
76.19604687500001
20
42.613153125000004
30
0
0
VERTEX
8
0
10
76.178775
20
42.593834375
30
0
0
VERTEX
8
0
10
76.161315625
20
42.57461875
30
0
42
0.1427356176412374
0
VERTEX
8
0
10
76.05287187500001
20
42.31671875
30
0
0
VERTEX
8
0
10
76.049603125
20
42.260937500000004
30
0
42
0.0006687526842779185
0
VERTEX
8
0
10
76.0496
20
42.2596
30
0
0
VERTEX
8
0
10
76.0496
20
42.09513125
30
0
0
VERTEX
8
0
10
76.051046875
20
42.069250000000004
30
0
0
VERTEX
8
0
10
76.052290625
20
42.043325
30
0
42
0.14273568292938665
0
VERTEX
8
0
10
76.157971875
20
41.78428125
30
0
0
VERTEX
8
0
10
76.195103125
20
41.742525
30
0
42
0.0006684388420158373
0
VERTEX
8
0
10
76.19604687500001
20
41.741578125000004
30
0
0
VERTEX
8
0
10
76.24000000000001
20
41.697625
30
0
0
VERTEX
8
0
10
76.24000000000001
20
39.17285625
30
0
0
VERTEX
8
0
10
76.19830625
20
39.1311625
30
0
42
0.17351662862968317
0
VERTEX
8
0
10
76.0098
20
38.676071875000005
30
0
0
VERTEX
8
0
10
76.0098
20
37.143928125
30
0
0
VERTEX
8
0
10
76.01683125000001
20
37.072528125000005
30
0
42
0.3857423796044815
0
VERTEX
8
0
10
76.775871875
20
36.449600000000004
30
0
0
SEQEND
0
POLYLINE
66
1
8
16_copper
10
0.0
20
0.0
30
0.0
70
1
0
VERTEX
8
0
10
79.9404
20
44.71645625
30
0
0
VERTEX
8
0
10
79.9404
20
45.263543750000004
30
0
0
VERTEX
8
0
10
79.55354375
20
45.650400000000005
30
0
0
VERTEX
8
0
10
79.00645625
20
45.650400000000005
30
0
0
VERTEX
8
0
10
78.6196
20
45.263543750000004
30
0
0
VERTEX
8
0
10
78.6196
20
44.71645625
30
0
0
VERTEX
8
0
10
79.00645625
20
44.3296
30
0
0
VERTEX
8
0
10
79.55354375
20
44.3296
30
0
0
SEQEND
0
POLYLINE
66
1
8
16_copper
10
0.0
20
0.0
30
0.0
70
1
0
VERTEX
8
0
10
76.836078125
20
36.608296875
30
0
42
0.3578058919557322
0
VERTEX
8
0
10
77.394
20
37.223871875
30
0
0
VERTEX
8
0
10
77.394
20
38.596128125
30
0
0
VERTEX
8
0
10
77.387703125
20
38.660078125000005
30
0
42
0.9063474445600833
0
VERTEX
8
0
10
76.086
20
38.596128125
30
0
0
VERTEX
8
0
10
76.086
20
37.223871875
30
0
0
VERTEX
8
0
10
76.092296875
20
37.159921875
30
0
42
0.3857420086717843
0
VERTEX
8
0
10
76.77212812500001
20
36.602000000000004
30
0
0
SEQEND
0
POLYLINE
66
1
8
1_copper
10
0.0
20
0.0
30
0.0
70
1
0
VERTEX
8
0
10
74.307271875
20
36.45663125
30
0
42
0.35780596236554063
0
VERTEX
8
0
10
74.9302
20
37.143928125
30
0
0
VERTEX
8
0
10
74.9302
20
38.676071875000005
30
0
0
VERTEX
8
0
10
74.92316875
20
38.747471875
30
0
42
0.14833598864046654
0
VERTEX
8
0
10
74.74169375000001
20
39.1311625
30
0
0
VERTEX
8
0
10
74.7
20
39.17285625
30
0
0
VERTEX
8
0
10
74.7
20
43.13289375
30
0
0
VERTEX
8
0
10
75.82050625000001
20
44.2534
30
0
0
VERTEX
8
0
10
76.15510937500001
20
44.2534
30
0
0
VERTEX
8
0
10
76.5866
20
44.684890625
30
0
0
VERTEX
8
0
10
76.5866
20
45.295109375
30
0
0
VERTEX
8
0
10
76.15510937500001
20
45.726600000000005
30
0
0
VERTEX
8
0
10
75.54489062500001
20
45.726600000000005
30
0
0
VERTEX
8
0
10
75.1134
20
45.295109375
30
0
0
VERTEX
8
0
10
75.1134
20
44.96050625
30
0
0
VERTEX
8
0
10
73.846446875
20
43.693553125
30
0
0
VERTEX
8
0
10
73.829175
20
43.674234375000005
30
0
0
VERTEX
8
0
10
73.811715625
20
43.65501875
30
0
42
0.1427356176412374
0
VERTEX
8
0
10
73.703271875
20
43.397118750000004
30
0
0
VERTEX
8
0
10
73.70000312500001
20
43.3413375
30
0
42
0.0006687526842779185
0
VERTEX
8
0
10
73.7
20
43.34
30
0
0
VERTEX
8
0
10
73.7
20
39.17285625
30
0
0
VERTEX
8
0
10
73.65830625000001
20
39.1311625
30
0
42
0.17351662862968317
0
VERTEX
8
0
10
73.4698
20
38.676071875000005
30
0
0
VERTEX
8
0
10
73.4698
20
37.143928125
30
0
0
VERTEX
8
0
10
73.47683125
20
37.072528125000005
30
0
42
0.3857423796044815
0
VERTEX
8
0
10
74.235871875
20
36.449600000000004
30
0
0
SEQEND
0
POLYLINE
66
1
8
16_copper
10
0.0
20
0.0
30
0.0
70
1
0
VERTEX
8
0
10
76.5104
20
44.71645625
30
0
0
VERTEX
8
0
10
76.5104
20
45.263543750000004
30
0
0
VERTEX
8
0
10
76.12354375000001
20
45.650400000000005
30
0
0
VERTEX
8
0
10
75.57645625
20
45.650400000000005
30
0
0
VERTEX
8
0
10
75.1896
20
45.263543750000004
30
0
0
VERTEX
8
0
10
75.1896
20
44.71645625
30
0
0
VERTEX
8
0
10
75.57645625
20
44.3296
30
0
0
VERTEX
8
0
10
76.12354375000001
20
44.3296
30
0
0
SEQEND
0
POLYLINE
66
1
8
16_copper
10
0.0
20
0.0
30
0.0
70
1
0
VERTEX
8
0
10
74.29607812500001
20
36.608296875
30
0
42
0.3578058919557322
0
VERTEX
8
0
10
74.854
20
37.223871875
30
0
0
VERTEX
8
0
10
74.854
20
38.596128125
30
0
0
VERTEX
8
0
10
74.84770312500001
20
38.660078125000005
30
0
42
0.9063474445600833
0
VERTEX
8
0
10
73.546
20
38.596128125
30
0
0
VERTEX
8
0
10
73.546
20
37.223871875
30
0
0
VERTEX
8
0
10
73.55229687500001
20
37.159921875
30
0
42
0.3857420086717843
0
VERTEX
8
0
10
74.232128125
20
36.602000000000004
30
0
0
SEQEND
0
POLYLINE
66
1
8
1_copper
10
0.0
20
0.0
30
0.0
70
1
0
VERTEX
8
0
10
71.767271875
20
36.45663125
30
0
42
0.35780596236554063
0
VERTEX
8
0
10
72.39020000000001
20
37.143928125
30
0
0
VERTEX
8
0
10
72.39020000000001
20
38.676071875000005
30
0
0
VERTEX
8
0
10
72.38316875000001
20
38.747471875
30
0
42
0.14833598864046654
0
VERTEX
8
0
10
72.20169375
20
39.1311625
30
0
0
VERTEX
8
0
10
72.16
20
39.17285625
30
0
0
VERTEX
8
0
10
72.16
20
44.02289375
30
0
0
VERTEX
8
0
10
72.39050625
20
44.2534
30
0
0
VERTEX
8
0
10
72.725109375
20
44.2534
30
0
0
VERTEX
8
0
10
73.1566
20
44.684890625
30
0
0
VERTEX
8
0
10
73.1566
20
45.295109375
30
0
0
VERTEX
8
0
10
72.725109375
20
45.726600000000005
30
0
0
VERTEX
8
0
10
72.114890625
20
45.726600000000005
30
0
0
VERTEX
8
0
10
71.6834
20
45.295109375
30
0
0
VERTEX
8
0
10
71.6834
20
44.96050625
30
0
0
VERTEX
8
0
10
71.306446875
20
44.583553125
30
0
0
VERTEX
8
0
10
71.289175
20
44.564234375000005
30
0
0
VERTEX
8
0
10
71.271715625
20
44.545018750000004
30
0
42
0.1427356176412374
0
VERTEX
8
0
10
71.163271875
20
44.287118750000005
30
0
0
VERTEX
8
0
10
71.160003125
20
44.2313375
30
0
42
0.0006687526842779185
0
VERTEX
8
0
10
71.16
20
44.230000000000004
30
0
0
VERTEX
8
0
10
71.16
20
39.17285625
30
0
0
VERTEX
8
0
10
71.11830625
20
39.1311625
30
0
42
0.17351662862968317
0
VERTEX
8
0
10
70.9298
20
38.676071875000005
30
0
0
VERTEX
8
0
10
70.9298
20
37.143928125
30
0
0
VERTEX
8
0
10
70.93683125
20
37.072528125000005
30
0
42
0.3857423796044815
0
VERTEX
8
0
10
71.69587187500001
20
36.449600000000004
30
0
0
SEQEND
0
POLYLINE
66
1
8
16_copper
10
0.0
20
0.0
30
0.0
70
1
0
VERTEX
8
0
10
73.0804
20
44.71645625
30
0
0
VERTEX
8
0
10
73.0804
20
45.263543750000004
30
0
0
VERTEX
8
0
10
72.69354375
20
45.650400000000005
30
0
0
VERTEX
8
0
10
72.14645625
20
45.650400000000005
30
0
0
VERTEX
8
0
10
71.7596
20
45.263543750000004
30
0
0
VERTEX
8
0
10
71.7596
20
44.71645625
30
0
0
VERTEX
8
0
10
72.14645625
20
44.3296
30
0
0
VERTEX
8
0
10
72.69354375
20
44.3296
30
0
0
SEQEND
0
POLYLINE
66
1
8
16_copper
10
0.0
20
0.0
30
0.0
70
1
0
VERTEX
8
0
10
71.756078125
20
36.608296875
30
0
42
0.3578058919557322
0
VERTEX
8
0
10
72.31400000000001
20
37.223871875
30
0
0
VERTEX
8
0
10
72.31400000000001
20
38.596128125
30
0
0
VERTEX
8
0
10
72.307703125
20
38.660078125000005
30
0
42
0.9063474445600833
0
VERTEX
8
0
10
71.006
20
38.596128125
30
0
0
VERTEX
8
0
10
71.006
20
37.223871875
30
0
0
VERTEX
8
0
10
71.012296875
20
37.159921875
30
0
42
0.3857420086717843
0
VERTEX
8
0
10
71.692128125
20
36.602000000000004
30
0
0
SEQEND
0
POLYLINE
66
1
8
1_copper
10
0.0
20
0.0
30
0.0
70
1
0
VERTEX
8
0
10
69.227271875
20
36.45663125
30
0
42
0.35780596236554063
0
VERTEX
8
0
10
69.8502
20
37.143928125
30
0
0
VERTEX
8
0
10
69.8502
20
38.676071875000005
30
0
0
VERTEX
8
0
10
69.84316875
20
38.747471875
30
0
42
0.14833598864046654
0
VERTEX
8
0
10
69.66169375
20
39.1311625
30
0
0
VERTEX
8
0
10
69.62
20
39.17285625
30
0
0
VERTEX
8
0
10
69.62
20
44.88
30
0
0
VERTEX
8
0
10
69.618553125
20
44.90588125
30
0
0
VERTEX
8
0
10
69.617309375
20
44.93180625
30
0
42
0.14273568292938665
0
VERTEX
8
0
10
69.511628125
20
45.190850000000005
30
0
0
VERTEX
8
0
10
69.474496875
20
45.23260625
30
0
42
0.0006684388420158373
0
VERTEX
8
0
10
69.47355312500001
20
45.233553125
30
0
0
VERTEX
8
0
10
67.36355312500001
20
47.343553125
30
0
0
VERTEX
8
0
10
67.344234375
20
47.360825000000006
30
0
0
VERTEX
8
0
10
67.32501875
20
47.378284375
30
0
42
0.1427356176412374
0
VERTEX
8
0
10
67.06711875
20
47.486728125
30
0
0
VERTEX
8
0
10
67.0113375
20
47.489996875
30
0
42
0.0006687526842779185
0
VERTEX
8
0
10
67.01
20
47.49
30
0
0
VERTEX
8
0
10
55.531709375000005
20
47.49
30
0
0
VERTEX
8
0
10
55.295109375
20
47.726600000000005
30
0
0
VERTEX
8
0
10
54.684890625
20
47.726600000000005
30
0
0
VERTEX
8
0
10
54.2534
20
47.295109375
30
0
0
VERTEX
8
0
10
54.2534
20
46.684890625
30
0
0
VERTEX
8
0
10
54.684890625
20
46.2534
30
0
0
VERTEX
8
0
10
55.295109375
20
46.2534
30
0
0
VERTEX
8
0
10
55.531709375000005
20
46.49
30
0
0
VERTEX
8
0
10
66.80289375000001
20
46.49
30
0
0
VERTEX
8
0
10
68.62
20
44.67289375
30
0
0
VERTEX
8
0
10
68.62
20
39.17285625
30
0
0
VERTEX
8
0
10
68.57830625
20
39.1311625
30
0
0
VERTEX
8
0
10
68.532790625
20
39.075703125000004
30
0
42
0.14833589099061373
0
VERTEX
8
0
10
68.38980000000001
20
38.676071875000005
30
0
0
VERTEX
8
0
10
68.38980000000001
20
37.143928125
30
0
0
VERTEX
8
0
10
68.39683125
20
37.072528125000005
30
0
42
0.3857423796044815
0
VERTEX
8
0
10
69.155871875
20
36.449600000000004
30
0
0
SEQEND
0
POLYLINE
66
1
8
16_copper
10
0.0
20
0.0
30
0.0
70
1
0
VERTEX
8
0
10
55.650400000000005
20
46.71645625
30
0
0
VERTEX
8
0
10
55.650400000000005
20
47.263543750000004
30
0
0
VERTEX
8
0
10
55.263543750000004
20
47.650400000000005
30
0
0
VERTEX
8
0
10
54.71645625
20
47.650400000000005
30
0
0
VERTEX
8
0
10
54.3296
20
47.263543750000004
30
0
0
VERTEX
8
0
10
54.3296
20
46.71645625
30
0
0
VERTEX
8
0
10
54.71645625
20
46.3296
30
0
0
VERTEX
8
0
10
55.263543750000004
20
46.3296
30
0
0
SEQEND
0
POLYLINE
66
1
8
16_copper
10
0.0
20
0.0
30
0.0
70
1
0
VERTEX
8
0
10
69.21607812500001
20
36.608296875
30
0
42
0.3578058919557322
0
VERTEX
8
0
10
69.774
20
37.223871875
30
0
0
VERTEX
8
0
10
69.774
20
38.596128125
30
0
0
VERTEX
8
0
10
69.767703125
20
38.660078125000005
30
0
42
0.9063474445600833
0
VERTEX
8
0
10
68.46600000000001
20
38.596128125
30
0
0
VERTEX
8
0
10
68.46600000000001
20
37.223871875
30
0
0
VERTEX
8
0
10
68.472296875
20
37.159921875
30
0
42
0.3857420086717843
0
VERTEX
8
0
10
69.152128125
20
36.602000000000004
30
0
0
SEQEND
0
POLYLINE
66
1
8
1_copper
10
0.0
20
0.0
30
0.0
70
1
0
VERTEX
8
0
10
66.68727187500001
20
36.45663125
30
0
42
0.35780596236554063
0
VERTEX
8
0
10
67.31020000000001
20
37.143928125
30
0
0
VERTEX
8
0
10
67.31020000000001
20
38.676071875000005
30
0
0
VERTEX
8
0
10
67.30316875
20
38.747471875
30
0
42
0.14833598864046654
0
VERTEX
8
0
10
67.12169375
20
39.1311625
30
0
0
VERTEX
8
0
10
67.08
20
39.17285625
30
0
0
VERTEX
8
0
10
67.08
20
43.42
30
0
0
VERTEX
8
0
10
67.078553125
20
43.44588125
30
0
0
VERTEX
8
0
10
67.077309375
20
43.47180625
30
0
42
0.14273568292938665
0
VERTEX
8
0
10
66.97162812500001
20
43.730850000000004
30
0
0
VERTEX
8
0
10
66.93449687500001
20
43.77260625
30
0
42
0.0006684388420158373
0
VERTEX
8
0
10
66.933553125
20
43.773553125
30
0
0
VERTEX
8
0
10
66.353553125
20
44.353553125000005
30
0
0
VERTEX
8
0
10
66.33423437500001
20
44.370825
30
0
0
VERTEX
8
0
10
66.31501875000001
20
44.388284375000005
30
0
42
0.1427356176412374
0
VERTEX
8
0
10
66.05711875
20
44.496728125000004
30
0
0
VERTEX
8
0
10
66.0013375
20
44.499996875
30
0
42
0.0006687526842779185
0
VERTEX
8
0
10
66
20
44.5
30
0
0
VERTEX
8
0
10
48.75710625
20
44.5
30
0
0
VERTEX
8
0
10
48.296600000000005
20
44.96050625
30
0
0
VERTEX
8
0
10
48.296600000000005
20
45.295109375
30
0
0
VERTEX
8
0
10
47.865109375
20
45.726600000000005
30
0
0
VERTEX
8
0
10
47.254890625
20
45.726600000000005
30
0
0
VERTEX
8
0
10
46.8234
20
45.295109375
30
0
0
VERTEX
8
0
10
46.8234
20
44.684890625
30
0
0
VERTEX
8
0
10
47.254890625
20
44.2534
30
0
0
VERTEX
8
0
10
47.58949375
20
44.2534
30
0
0
VERTEX
8
0
10
48.196446875
20
43.646446875
30
0
0
VERTEX
8
0
10
48.215765625
20
43.629175000000004
30
0
0
VERTEX
8
0
10
48.234981250000004
20
43.611715625
30
0
42
0.1427356176412374
0
VERTEX
8
0
10
48.49288125
20
43.503271875
30
0
0
VERTEX
8
0
10
48.5486625
20
43.500003125
30
0
42
0.0006687526842779185
0
VERTEX
8
0
10
48.550000000000004
20
43.5
30
0
0
VERTEX
8
0
10
65.79289375
20
43.5
30
0
0
VERTEX
8
0
10
66.08
20
43.21289375
30
0
0
VERTEX
8
0
10
66.08
20
39.17285625
30
0
0
VERTEX
8
0
10
66.03830625
20
39.1311625
30
0
42
0.17351662862968317
0
VERTEX
8
0
10
65.8498
20
38.676071875000005
30
0
0
VERTEX
8
0
10
65.8498
20
37.143928125
30
0
0
VERTEX
8
0
10
65.85683125
20
37.072528125000005
30
0
42
0.3857423796044815
0
VERTEX
8
0
10
66.615871875
20
36.449600000000004
30
0
0
SEQEND
0
POLYLINE
66
1
8
16_copper
10
0.0
20
0.0
30
0.0
70
1
0
VERTEX
8
0
10
48.220400000000005
20
44.71645625
30
0
0
VERTEX
8
0
10
48.220400000000005
20
45.263543750000004
30
0
0
VERTEX
8
0
10
47.833543750000004
20
45.650400000000005
30
0
0
VERTEX
8
0
10
47.28645625
20
45.650400000000005
30
0
0
VERTEX
8
0
10
46.8996
20
45.263543750000004
30
0
0
VERTEX
8
0
10
46.8996
20
44.71645625
30
0
0
VERTEX
8
0
10
47.28645625
20
44.3296
30
0
0
VERTEX
8
0
10
47.833543750000004
20
44.3296
30
0
0
SEQEND
0
POLYLINE
66
1
8
16_copper
10
0.0
20
0.0
30
0.0
70
1
0
VERTEX
8
0
10
66.676078125
20
36.608296875
30
0
42
0.3578058919557322
0
VERTEX
8
0
10
67.23400000000001
20
37.223871875
30
0
0
VERTEX
8
0
10
67.23400000000001
20
38.596128125
30
0
0
VERTEX
8
0
10
67.227703125
20
38.660078125000005
30
0
42
0.9063474445600833
0
VERTEX
8
0
10
65.926
20
38.596128125
30
0
0
VERTEX
8
0
10
65.926
20
37.223871875
30
0
0
VERTEX
8
0
10
65.932296875
20
37.159921875
30
0
42
0.3857420086717843
0
VERTEX
8
0
10
66.612128125
20
36.602000000000004
30
0
0
SEQEND
0
POLYLINE
66
1
8
1_copper
10
0.0
20
0.0
30
0.0
70
1
0
VERTEX
8
0
10
48.296600000000005
20
57.384890625000004
30
0
0
VERTEX
8
0
10
48.296600000000005
20
57.995109375000006
30
0
0
VERTEX
8
0
10
47.865109375
20
58.4266
30
0
0
VERTEX
8
0
10
47.53050625
20
58.4266
30
0
0
VERTEX
8
0
10
43.529409375
20
62.4277
30
0
0
VERTEX
8
0
10
43.5666
20
62.464890625
30
0
0
VERTEX
8
0
10
43.5666
20
63.075109375000004
30
0
0
VERTEX
8
0
10
43.135109375
20
63.506600000000006
30
0
0
VERTEX
8
0
10
42.524890625000005
20
63.506600000000006
30
0
0
VERTEX
8
0
10
42.0934
20
63.075109375000004
30
0
0
VERTEX
8
0
10
42.0934
20
62.464890625
30
0
0
VERTEX
8
0
10
42.41246875
20
62.145821875
30
0
0
VERTEX
8
0
10
42.421034375000005
20
62.133693750000006
30
0
0
VERTEX
8
0
10
42.435890625
20
62.112300000000005
30
0
42
0.0020049421157270573
0
VERTEX
8
0
10
42.438371875
20
62.10915
30
0
0
VERTEX
8
0
10
42.475503125
20
62.06739375
30
0
42
0.0006684388420158373
0
VERTEX
8
0
10
42.476446875
20
62.066446875000004
30
0
0
VERTEX
8
0
10
46.8234
20
57.719493750000005
30
0
0
VERTEX
8
0
10
46.8234
20
57.384890625000004
30
0
0
VERTEX
8
0
10
47.254890625
20
56.9534
30
0
0
VERTEX
8
0
10
47.865109375
20
56.9534
30
0
0
SEQEND
0
POLYLINE
66
1
8
16_copper
10
0.0
20
0.0
30
0.0
70
1
0
VERTEX
8
0
10
43.4904
20
62.49645625
30
0
0
VERTEX
8
0
10
43.4904
20
63.043543750000005
30
0
0
VERTEX
8
0
10
43.10354375
20
63.430400000000006
30
0
0
VERTEX
8
0
10
42.556456250000004
20
63.430400000000006
30
0
0
VERTEX
8
0
10
42.1696
20
63.043543750000005
30
0
0
VERTEX
8
0
10
42.1696
20
62.49645625
30
0
0
VERTEX
8
0
10
42.556456250000004
20
62.1096
30
0
0
VERTEX
8
0
10
43.10354375
20
62.1096
30
0
0
SEQEND
0
POLYLINE
66
1
8
16_copper
10
0.0
20
0.0
30
0.0
70
1
0
VERTEX
8
0
10
48.220400000000005
20
57.41645625
30
0
0
VERTEX
8
0
10
48.220400000000005
20
57.96354375
30
0
0
VERTEX
8
0
10
47.833543750000004
20
58.3504
30
0
0
VERTEX
8
0
10
47.28645625
20
58.3504
30
0
0
VERTEX
8
0
10
46.8996
20
57.96354375
30
0
0
VERTEX
8
0
10
46.8996
20
57.41645625
30
0
0
VERTEX
8
0
10
47.28645625
20
57.0296
30
0
0
VERTEX
8
0
10
47.833543750000004
20
57.0296
30
0
0
SEQEND
0
POLYLINE
66
1
8
1_copper
10
0.0
20
0.0
30
0.0
70
1
0
VERTEX
8
0
10
55.726600000000005
20
59.384890625000004
30
0
0
VERTEX
8
0
10
55.726600000000005
20
59.995109375000006
30
0
0
VERTEX
8
0
10
55.295109375
20
60.4266
30
0
0
VERTEX
8
0
10
54.684890625
20
60.4266
30
0
0
VERTEX
8
0
10
54.448290625000006
20
60.190000000000005
30
0
0
VERTEX
8
0
10
53.547106250000006
20
60.190000000000005
30
0
0
VERTEX
8
0
10
50.9966
20
62.74050625
30
0
0
VERTEX
8
0
10
50.9966
20
63.075109375000004
30
0
0
VERTEX
8
0
10
50.565109375000006
20
63.506600000000006
30
0
0
VERTEX
8
0
10
49.954890625000004
20
63.506600000000006
30
0
0
VERTEX
8
0
10
49.5234
20
63.075109375000004
30
0
0
VERTEX
8
0
10
49.5234
20
62.464890625
30
0
0
VERTEX
8
0
10
49.954890625000004
20
62.0334
30
0
0
VERTEX
8
0
10
50.289493750000005
20
62.0334
30
0
0
VERTEX
8
0
10
52.986446875000006
20
59.336446875
30
0
0
VERTEX
8
0
10
53.005765625
20
59.319175
30
0
0
VERTEX
8
0
10
53.02498125
20
59.301715625
30
0
42
0.1427356176412374
0
VERTEX
8
0
10
53.28288125
20
59.193271875
30
0
0
VERTEX
8
0
10
53.338662500000005
20
59.190003125000004
30
0
42
0.0006687526842779185
0
VERTEX
8
0
10
53.34
20
59.190000000000005
30
0
0
VERTEX
8
0
10
54.448290625000006
20
59.190000000000005
30
0
0
VERTEX
8
0
10
54.684890625
20
58.9534
30
0
0
VERTEX
8
0
10
55.295109375
20
58.9534
30
0
0
SEQEND
0
POLYLINE
66
1
8
16_copper
10
0.0
20
0.0
30
0.0
70
1
0
VERTEX
8
0
10
50.9204
20
62.49645625
30
0
0
VERTEX
8
0
10
50.9204
20
63.043543750000005
30
0
0
VERTEX
8
0
10
50.53354375
20
63.430400000000006
30
0
0
VERTEX
8
0
10
49.98645625
20
63.430400000000006
30
0
0
VERTEX
8
0
10
49.5996
20
63.043543750000005
30
0
0
VERTEX
8
0
10
49.5996
20
62.49645625
30
0
0
VERTEX
8
0
10
49.98645625
20
62.1096
30
0
0
VERTEX
8
0
10
50.53354375
20
62.1096
30
0
0
SEQEND
0
POLYLINE
66
1
8
16_copper
10
0.0
20
0.0
30
0.0
70
1
0
VERTEX
8
0
10
55.650400000000005
20
59.41645625
30
0
0
VERTEX
8
0
10
55.650400000000005
20
59.96354375
30
0
0
VERTEX
8
0
10
55.263543750000004
20
60.3504
30
0
0
VERTEX
8
0
10
54.71645625
20
60.3504
30
0
0
VERTEX
8
0
10
54.3296
20
59.96354375
30
0
0
VERTEX
8
0
10
54.3296
20
59.41645625
30
0
0
VERTEX
8
0
10
54.71645625
20
59.0296
30
0
0
VERTEX
8
0
10
55.263543750000004
20
59.0296
30
0
0
SEQEND
0
POLYLINE
66
1
8
1_copper
10
0.0
20
0.0
30
0.0
70
1
0
VERTEX
8
0
10
73.1566
20
57.384890625000004
30
0
0
VERTEX
8
0
10
73.1566
20
57.995109375000006
30
0
0
VERTEX
8
0
10
72.725109375
20
58.4266
30
0
0
VERTEX
8
0
10
72.114890625
20
58.4266
30
0
0
VERTEX
8
0
10
71.878290625
20
58.190000000000005
30
0
0
VERTEX
8
0
10
62.977106250000006
20
58.190000000000005
30
0
0
VERTEX
8
0
10
58.4266
20
62.74050625
30
0
0
VERTEX
8
0
10
58.4266
20
63.075109375000004
30
0
0
VERTEX
8
0
10
57.995109375000006
20
63.506600000000006
30
0
0
VERTEX
8
0
10
57.384890625000004
20
63.506600000000006
30
0
0
VERTEX
8
0
10
56.9534
20
63.075109375000004
30
0
0
VERTEX
8
0
10
56.9534
20
62.464890625
30
0
0
VERTEX
8
0
10
57.384890625000004
20
62.0334
30
0
0
VERTEX
8
0
10
57.719493750000005
20
62.0334
30
0
0
VERTEX
8
0
10
62.416446875000005
20
57.336446875
30
0
0
VERTEX
8
0
10
62.435765625
20
57.319175
30
0
0
VERTEX
8
0
10
62.45498125
20
57.301715625
30
0
42
0.1427356176412374
0
VERTEX
8
0
10
62.71288125
20
57.193271875
30
0
0
VERTEX
8
0
10
62.768662500000005
20
57.190003125000004
30
0
42
0.0006687526842779185
0
VERTEX
8
0
10
62.77
20
57.190000000000005
30
0
0
VERTEX
8
0
10
71.878290625
20
57.190000000000005
30
0
0
VERTEX
8
0
10
72.114890625
20
56.9534
30
0
0
VERTEX
8
0
10
72.725109375
20
56.9534
30
0
0
SEQEND
0
POLYLINE
66
1
8
16_copper
10
0.0
20
0.0
30
0.0
70
1
0
VERTEX
8
0
10
58.3504
20
62.49645625
30
0
0
VERTEX
8
0
10
58.3504
20
63.043543750000005
30
0
0
VERTEX
8
0
10
57.96354375
20
63.430400000000006
30
0
0
VERTEX
8
0
10
57.41645625
20
63.430400000000006
30
0
0
VERTEX
8
0
10
57.0296
20
63.043543750000005
30
0
0
VERTEX
8
0
10
57.0296
20
62.49645625
30
0
0
VERTEX
8
0
10
57.41645625
20
62.1096
30
0
0
VERTEX
8
0
10
57.96354375
20
62.1096
30
0
0
SEQEND
0
POLYLINE
66
1
8
16_copper
10
0.0
20
0.0
30
0.0
70
1
0
VERTEX
8
0
10
73.0804
20
57.41645625
30
0
0
VERTEX
8
0
10
73.0804
20
57.96354375
30
0
0
VERTEX
8
0
10
72.69354375
20
58.3504
30
0
0
VERTEX
8
0
10
72.14645625
20
58.3504
30
0
0
VERTEX
8
0
10
71.7596
20
57.96354375
30
0
0
VERTEX
8
0
10
71.7596
20
57.41645625
30
0
0
VERTEX
8
0
10
72.14645625
20
57.0296
30
0
0
VERTEX
8
0
10
72.69354375
20
57.0296
30
0
0
SEQEND
0
POLYLINE
66
1
8
1_copper
10
0.0
20
0.0
30
0.0
70
1
0
VERTEX
8
0
10
76.5866
20
57.384890625000004
30
0
0
VERTEX
8
0
10
76.5866
20
57.995109375000006
30
0
0
VERTEX
8
0
10
76.15510937500001
20
58.4266
30
0
0
VERTEX
8
0
10
75.82050625000001
20
58.4266
30
0
0
VERTEX
8
0
10
73.283953125
20
60.963153125000005
30
0
0
VERTEX
8
0
10
73.264634375
20
60.980425000000004
30
0
0
VERTEX
8
0
10
73.24541875
20
60.997884375000005
30
0
42
0.1427356176412374
0
VERTEX
8
0
10
72.98751875
20
61.106328125000005
30
0
0
VERTEX
8
0
10
72.9317375
20
61.109596875
30
0
42
0.0006687526842779185
0
VERTEX
8
0
10
72.9304
20
61.1096
30
0
0
VERTEX
8
0
10
65.8622375
20
61.1096
30
0
0
VERTEX
8
0
10
65.62
20
61.3518375
30
0
0
VERTEX
8
0
10
65.62
20
62.228290625
30
0
0
VERTEX
8
0
10
65.8566
20
62.464890625
30
0
0
VERTEX
8
0
10
65.8566
20
63.075109375000004
30
0
0
VERTEX
8
0
10
65.425109375
20
63.506600000000006
30
0
0
VERTEX
8
0
10
64.814890625
20
63.506600000000006
30
0
0
VERTEX
8
0
10
64.38340000000001
20
63.075109375000004
30
0
0
VERTEX
8
0
10
64.38340000000001
20
62.464890625
30
0
0
VERTEX
8
0
10
64.62
20
62.228290625
30
0
0
VERTEX
8
0
10
64.62
20
61.14473125
30
0
0
VERTEX
8
0
10
64.621446875
20
61.11885
30
0
0
VERTEX
8
0
10
64.622690625
20
61.092925
30
0
42
0.14273568292938665
0
VERTEX
8
0
10
64.72837187500001
20
60.833881250000005
30
0
0
VERTEX
8
0
10
64.76550312500001
20
60.792125000000006
30
0
42
0.0006684388420158373
0
VERTEX
8
0
10
64.766446875
20
60.791178125
30
0
0
VERTEX
8
0
10
65.301578125
20
60.256046875
30
0
0
VERTEX
8
0
10
65.320896875
20
60.238775000000004
30
0
0
VERTEX
8
0
10
65.3401125
20
60.221315625
30
0
42
0.1427356176412374
0
VERTEX
8
0
10
65.59801250000001
20
60.112871875
30
0
0
VERTEX
8
0
10
65.65379375
20
60.109603125
30
0
42
0.0006687526842779185
0
VERTEX
8
0
10
65.65513125
20
60.1096
30
0
0
VERTEX
8
0
10
72.72329375000001
20
60.1096
30
0
0
VERTEX
8
0
10
75.1134
20
57.719493750000005
30
0
0
VERTEX
8
0
10
75.1134
20
57.384890625000004
30
0
0
VERTEX
8
0
10
75.54489062500001
20
56.9534
30
0
0
VERTEX
8
0
10
76.15510937500001
20
56.9534
30
0
0
SEQEND
0
POLYLINE
66
1
8
16_copper
10
0.0
20
0.0
30
0.0
70
1
0
VERTEX
8
0
10
65.7804
20
62.49645625
30
0
0
VERTEX
8
0
10
65.7804
20
63.043543750000005
30
0
0
VERTEX
8
0
10
65.39354375
20
63.430400000000006
30
0
0
VERTEX
8
0
10
64.84645625
20
63.430400000000006
30
0
0
VERTEX
8
0
10
64.45960000000001
20
63.043543750000005
30
0
0
VERTEX
8
0
10
64.45960000000001
20
62.49645625
30
0
0
VERTEX
8
0
10
64.84645625
20
62.1096
30
0
0
VERTEX
8
0
10
65.39354375
20
62.1096
30
0
0
SEQEND
0
POLYLINE
66
1
8
16_copper
10
0.0
20
0.0
30
0.0
70
1
0
VERTEX
8
0
10
76.5104
20
57.41645625
30
0
0
VERTEX
8
0
10
76.5104
20
57.96354375
30
0
0
VERTEX
8
0
10
76.12354375000001
20
58.3504
30
0
0
VERTEX
8
0
10
75.57645625
20
58.3504
30
0
0
VERTEX
8
0
10
75.1896
20
57.96354375
30
0
0
VERTEX
8
0
10
75.1896
20
57.41645625
30
0
0
VERTEX
8
0
10
75.57645625
20
57.0296
30
0
0
VERTEX
8
0
10
76.12354375000001
20
57.0296
30
0
0
SEQEND
0
POLYLINE
66
1
8
1_copper
10
0.0
20
0.0
30
0.0
70
1
0
VERTEX
8
0
10
80.0166
20
57.384890625000004
30
0
0
VERTEX
8
0
10
80.0166
20
57.995109375000006
30
0
0
VERTEX
8
0
10
79.585109375
20
58.4266
30
0
0
VERTEX
8
0
10
79.25050625
20
58.4266
30
0
0
VERTEX
8
0
10
73.249409375
20
64.4277
30
0
0
VERTEX
8
0
10
73.2866
20
64.46489062500001
30
0
0
VERTEX
8
0
10
73.2866
20
65.075109375
30
0
0
VERTEX
8
0
10
72.855109375
20
65.5066
30
0
0
VERTEX
8
0
10
72.244890625
20
65.5066
30
0
0
VERTEX
8
0
10
71.8134
20
65.075109375
30
0
0
VERTEX
8
0
10
71.8134
20
64.46489062500001
30
0
0
VERTEX
8
0
10
72.13246875
20
64.14582187500001
30
0
0
VERTEX
8
0
10
72.141034375
20
64.13369375
30
0
0
VERTEX
8
0
10
72.155890625
20
64.1123
30
0
42
0.0020049421157270573
0
VERTEX
8
0
10
72.158371875
20
64.10915
30
0
0
VERTEX
8
0
10
72.195503125
20
64.06739375000001
30
0
42
0.0006684388420158373
0
VERTEX
8
0
10
72.196446875
20
64.066446875
30
0
0
VERTEX
8
0
10
78.5434
20
57.719493750000005
30
0
0
VERTEX
8
0
10
78.5434
20
57.384890625000004
30
0
0
VERTEX
8
0
10
78.974890625
20
56.9534
30
0
0
VERTEX
8
0
10
79.585109375
20
56.9534
30
0
0
SEQEND
0
POLYLINE
66
1
8
16_copper
10
0.0
20
0.0
30
0.0
70
1
0
VERTEX
8
0
10
73.2104
20
64.49645625000001
30
0
0
VERTEX
8
0
10
73.2104
20
65.04354375
30
0
0
VERTEX
8
0
10
72.82354375
20
65.4304
30
0
0
VERTEX
8
0
10
72.27645625000001
20
65.4304
30
0
0
VERTEX
8
0
10
71.8896
20
65.04354375
30
0
0
VERTEX
8
0
10
71.8896
20
64.49645625000001
30
0
0
VERTEX
8
0
10
72.27645625000001
20
64.1096
30
0
0
VERTEX
8
0
10
72.82354375
20
64.1096
30
0
0
SEQEND
0
POLYLINE
66
1
8
16_copper
10
0.0
20
0.0
30
0.0
70
1
0
VERTEX
8
0
10
79.9404
20
57.41645625
30
0
0
VERTEX
8
0
10
79.9404
20
57.96354375
30
0
0
VERTEX
8
0
10
79.55354375
20
58.3504
30
0
0
VERTEX
8
0
10
79.00645625
20
58.3504
30
0
0
VERTEX
8
0
10
78.6196
20
57.96354375
30
0
0
VERTEX
8
0
10
78.6196
20
57.41645625
30
0
0
VERTEX
8
0
10
79.00645625
20
57.0296
30
0
0
VERTEX
8
0
10
79.55354375
20
57.0296
30
0
0
SEQEND
0
POLYLINE
66
1
8
1_copper
10
0.0
20
0.0
30
0.0
70
1
0
VERTEX
8
0
10
83.4466
20
55.384890625000004
30
0
0
VERTEX
8
0
10
83.4466
20
55.995109375000006
30
0
0
VERTEX
8
0
10
83.01510937500001
20
56.4266
30
0
0
VERTEX
8
0
10
82.68050625000001
20
56.4266
30
0
0
VERTEX
8
0
10
82.5
20
56.60710625
30
0
0
VERTEX
8
0
10
82.5
20
62
30
0
0
VERTEX
8
0
10
82.498553125
20
62.025881250000005
30
0
0
VERTEX
8
0
10
82.497309375
20
62.051806250000006
30
0
42
0.14273568292938665
0
VERTEX
8
0
10
82.391628125
20
62.31085
30
0
0
VERTEX
8
0
10
82.35449687500001
20
62.35260625
30
0
42
0.0006684388420158373
0
VERTEX
8
0
10
82.353553125
20
62.353553125000005
30
0
0
VERTEX
8
0
10
81.58355312500001
20
63.123553125
30
0
0
VERTEX
8
0
10
81.564234375
20
63.140825
30
0
0
VERTEX
8
0
10
81.54501875
20
63.158284375
30
0
42
0.1427356176412374
0
VERTEX
8
0
10
81.28711875
20
63.266728125
30
0
0
VERTEX
8
0
10
81.23133750000001
20
63.269996875000004
30
0
42
0.0006687526842779185
0
VERTEX
8
0
10
81.23
20
63.27
30
0
0
VERTEX
8
0
10
80.521709375
20
63.27
30
0
0
VERTEX
8
0
10
80.285109375
20
63.506600000000006
30
0
0
VERTEX
8
0
10
79.674890625
20
63.506600000000006
30
0
0
VERTEX
8
0
10
79.24340000000001
20
63.075109375000004
30
0
0
VERTEX
8
0
10
79.24340000000001
20
62.464890625
30
0
0
VERTEX
8
0
10
79.674890625
20
62.0334
30
0
0
VERTEX
8
0
10
80.285109375
20
62.0334
30
0
0
VERTEX
8
0
10
80.521709375
20
62.27
30
0
0
VERTEX
8
0
10
81.02289375000001
20
62.27
30
0
0
VERTEX
8
0
10
81.5
20
61.792893750000005
30
0
0
VERTEX
8
0
10
81.5
20
56.400000000000006
30
0
0
VERTEX
8
0
10
81.501446875
20
56.37411875
30
0
0
VERTEX
8
0
10
81.502690625
20
56.34819375
30
0
42
0.14273568292938665
0
VERTEX
8
0
10
81.608371875
20
56.089150000000004
30
0
0
VERTEX
8
0
10
81.645503125
20
56.047393750000005
30
0
42
0.0006684388420158373
0
VERTEX
8
0
10
81.64644687500001
20
56.046446875
30
0
0
VERTEX
8
0
10
81.9734
20
55.719493750000005
30
0
0
VERTEX
8
0
10
81.9734
20
55.384890625000004
30
0
0
VERTEX
8
0
10
82.40489062500001
20
54.9534
30
0
0
VERTEX
8
0
10
83.01510937500001
20
54.9534
30
0
0
SEQEND
0
POLYLINE
66
1
8
16_copper
10
0.0
20
0.0
30
0.0
70
1
0
VERTEX
8
0
10
80.6404
20
62.49645625
30
0
0
VERTEX
8
0
10
80.6404
20
63.043543750000005
30
0
0
VERTEX
8
0
10
80.25354375
20
63.430400000000006
30
0
0
VERTEX
8
0
10
79.70645625
20
63.430400000000006
30
0
0
VERTEX
8
0
10
79.31960000000001
20
63.043543750000005
30
0
0
VERTEX
8
0
10
79.31960000000001
20
62.49645625
30
0
0
VERTEX
8
0
10
79.70645625
20
62.1096
30
0
0
VERTEX
8
0
10
80.25354375
20
62.1096
30
0
0
SEQEND
0
POLYLINE
66
1
8
16_copper
10
0.0
20
0.0
30
0.0
70
1
0
VERTEX
8
0
10
83.3704
20
55.41645625
30
0
0
VERTEX
8
0
10
83.3704
20
55.96354375
30
0
0
VERTEX
8
0
10
82.98354375000001
20
56.3504
30
0
0
VERTEX
8
0
10
82.43645625
20
56.3504
30
0
0
VERTEX
8
0
10
82.0496
20
55.96354375
30
0
0
VERTEX
8
0
10
82.0496
20
55.41645625
30
0
0
VERTEX
8
0
10
82.43645625
20
55.0296
30
0
0
VERTEX
8
0
10
82.98354375000001
20
55.0296
30
0
0
SEQEND
0
POLYLINE
66
1
8
1_copper
10
0.0
20
0.0
30
0.0
70
1
0
VERTEX
8
0
10
86.87660000000001
20
53.384890625000004
30
0
0
VERTEX
8
0
10
86.87660000000001
20
53.719493750000005
30
0
0
VERTEX
8
0
10
87.763553125
20
54.606446875
30
0
0
VERTEX
8
0
10
87.78082500000001
20
54.625765625
30
0
0
VERTEX
8
0
10
87.79828437500001
20
54.64498125
30
0
42
0.1427356176412374
0
VERTEX
8
0
10
87.906728125
20
54.90288125
30
0
0
VERTEX
8
0
10
87.909996875
20
54.9586625
30
0
42
0.0006687526842779185
0
VERTEX
8
0
10
87.91000000000001
20
54.96
30
0
0
VERTEX
8
0
10
87.91000000000001
20
62.228290625
30
0
0
VERTEX
8
0
10
88.1466
20
62.464890625
30
0
0
VERTEX
8
0
10
88.1466
20
63.075109375000004
30
0
0
VERTEX
8
0
10
87.715109375
20
63.506600000000006
30
0
0
VERTEX
8
0
10
87.10489062500001
20
63.506600000000006
30
0
0
VERTEX
8
0
10
86.6734
20
63.075109375000004
30
0
0
VERTEX
8
0
10
86.6734
20
62.464890625
30
0
0
VERTEX
8
0
10
86.91000000000001
20
62.228290625
30
0
0
VERTEX
8
0
10
86.91000000000001
20
55.16710625
30
0
0
VERTEX
8
0
10
86.16949375
20
54.4266
30
0
0
VERTEX
8
0
10
85.834890625
20
54.4266
30
0
0
VERTEX
8
0
10
85.4034
20
53.995109375000006
30
0
0
VERTEX
8
0
10
85.4034
20
53.384890625000004
30
0
0
VERTEX
8
0
10
85.834890625
20
52.9534
30
0
0
VERTEX
8
0
10
86.445109375
20
52.9534
30
0
0
SEQEND
0
POLYLINE
66
1
8
16_copper
10
0.0
20
0.0
30
0.0
70
1
0
VERTEX
8
0
10
88.0704
20
62.49645625
30
0
0
VERTEX
8
0
10
88.0704
20
63.043543750000005
30
0
0
VERTEX
8
0
10
87.68354375
20
63.430400000000006
30
0
0
VERTEX
8
0
10
87.13645625000001
20
63.430400000000006
30
0
0
VERTEX
8
0
10
86.7496
20
63.043543750000005
30
0
0
VERTEX
8
0
10
86.7496
20
62.49645625
30
0
0
VERTEX
8
0
10
87.13645625000001
20
62.1096
30
0
0
VERTEX
8
0
10
87.68354375
20
62.1096
30
0
0
SEQEND
0
POLYLINE
66
1
8
16_copper
10
0.0
20
0.0
30
0.0
70
1
0
VERTEX
8
0
10
86.80040000000001
20
53.41645625
30
0
0
VERTEX
8
0
10
86.80040000000001
20
53.96354375
30
0
0
VERTEX
8
0
10
86.41354375
20
54.3504
30
0
0
VERTEX
8
0
10
85.86645625
20
54.3504
30
0
0
VERTEX
8
0
10
85.4796
20
53.96354375
30
0
0
VERTEX
8
0
10
85.4796
20
53.41645625
30
0
0
VERTEX
8
0
10
85.86645625
20
53.0296
30
0
0
VERTEX
8
0
10
86.41354375
20
53.0296
30
0
0
SEQEND
0
POLYLINE
66
1
8
1_copper
10
0.0
20
0.0
30
0.0
70
1
0
VERTEX
8
0
10
42.674078125
20
31.5
30
0
0
VERTEX
8
0
10
43.6178625
20
31.5
30
0
0
VERTEX
8
0
10
43.64374375
20
31.501446875000003
30
0
0
VERTEX
8
0
10
43.66966875
20
31.502690625000003
30
0
42
0.14273568292938665
0
VERTEX
8
0
10
43.9287125
20
31.608371875000003
30
0
0
VERTEX
8
0
10
43.97046875
20
31.645503125
30
0
42
0.0006684388420158373
0
VERTEX
8
0
10
43.971415625
20
31.646446875000002
30
0
0
VERTEX
8
0
10
46.83436875
20
34.5094
30
0
0
VERTEX
8
0
10
48
20
34.5094
30
0
0
VERTEX
8
0
10
48.025881250000005
20
34.510846875
30
0
0
VERTEX
8
0
10
48.051806250000006
20
34.512090625
30
0
42
0.14273568292938665
0
VERTEX
8
0
10
48.31085
20
34.617771875
30
0
0
VERTEX
8
0
10
48.35260625
20
34.654903125000004
30
0
42
0.0006684388420158373
0
VERTEX
8
0
10
48.353553125000005
20
34.655846875
30
0
0
VERTEX
8
0
10
49.153553125
20
35.455846875
30
0
0
VERTEX
8
0
10
49.170825
20
35.475165625
30
0
0
VERTEX
8
0
10
49.188284375
20
35.49438125
30
0
42
0.1427356176412374
0
VERTEX
8
0
10
49.296728125
20
35.75228125
30
0
0
VERTEX
8
0
10
49.299996875000005
20
35.8080625
30
0
42
0.0006687526842779185
0
VERTEX
8
0
10
49.300000000000004
20
35.809400000000004
30
0
0
VERTEX
8
0
10
49.300000000000004
20
36.647143750000005
30
0
0
VERTEX
8
0
10
49.341693750000005
20
36.6888375
30
0
42
0.17351662862968317
0
VERTEX
8
0
10
49.5302
20
37.143928125
30
0
0
VERTEX
8
0
10
49.5302
20
38.676071875000005
30
0
0
VERTEX
8
0
10
49.52316875
20
38.747471875
30
0
42
0.9063475582535283
0
VERTEX
8
0
10
48.0698
20
38.676071875000005
30
0
0
VERTEX
8
0
10
48.0698
20
37.143928125
30
0
0
VERTEX
8
0
10
48.076831250000005
20
37.072528125000005
30
0
42
0.14833598864046654
0
VERTEX
8
0
10
48.258306250000004
20
36.6888375
30
0
0
VERTEX
8
0
10
48.300000000000004
20
36.647143750000005
30
0
0
VERTEX
8
0
10
48.300000000000004
20
36.01650625
30
0
0
VERTEX
8
0
10
47.792893750000005
20
35.5094
30
0
0
VERTEX
8
0
10
46.6272625
20
35.5094
30
0
0
VERTEX
8
0
10
46.60138125
20
35.507953125
30
0
0
VERTEX
8
0
10
46.57545625
20
35.506709375
30
0
42
0.14273568292938665
0
VERTEX
8
0
10
46.316412500000006
20
35.401028125
30
0
0
VERTEX
8
0
10
46.27465625
20
35.363896875
30
0
42
0.0006684388420158373
0
VERTEX
8
0
10
46.273709375
20
35.362953125000004
30
0
0
VERTEX
8
0
10
43.41075625
20
32.5
30
0
0
VERTEX
8
0
10
42.674078125
20
32.5
30
0
0
VERTEX
8
0
10
42.343878125
20
32.830200000000005
30
0
0
VERTEX
8
0
10
41.656121875000004
20
32.830200000000005
30
0
0
VERTEX
8
0
10
41.1698
20
32.343878125
30
0
0
VERTEX
8
0
10
41.1698
20
31.656121875
30
0
0
VERTEX
8
0
10
41.656121875000004
20
31.169800000000002
30
0
0
VERTEX
8
0
10
42.343878125
20
31.169800000000002
30
0
0
SEQEND
0
POLYLINE
66
1
8
16_copper
10
0.0
20
0.0
30
0.0
70
1
0
VERTEX
8
0
10
48.896078125
20
36.608296875
30
0
42
0.3578058919557322
0
VERTEX
8
0
10
49.454
20
37.223871875
30
0
0
VERTEX
8
0
10
49.454
20
38.596128125
30
0
0
VERTEX
8
0
10
49.447703125000004
20
38.660078125000005
30
0
42
0.9063474445600833
0
VERTEX
8
0
10
48.146
20
38.596128125
30
0
0
VERTEX
8
0
10
48.146
20
37.223871875
30
0
0
VERTEX
8
0
10
48.152296875000005
20
37.159921875
30
0
42
0.3857420086717843
0
VERTEX
8
0
10
48.832128125000004
20
36.602000000000004
30
0
0
SEQEND
0
POLYLINE
66
1
8
16_copper
10
0.0
20
0.0
30
0.0
70
1
0
VERTEX
8
0
10
42.754000000000005
20
31.687684375
30
0
0
VERTEX
8
0
10
42.754000000000005
20
32.312315625000004
30
0
0
VERTEX
8
0
10
42.312315625000004
20
32.754000000000005
30
0
0
VERTEX
8
0
10
41.687684375
20
32.754000000000005
30
0
0
VERTEX
8
0
10
41.246
20
32.312315625000004
30
0
0
VERTEX
8
0
10
41.246
20
31.687684375
30
0
0
VERTEX
8
0
10
41.687684375
20
31.246000000000002
30
0
0
VERTEX
8
0
10
42.312315625000004
20
31.246000000000002
30
0
0
SEQEND
0
POLYLINE
66
1
8
1_copper
10
0.0
20
0.0
30
0.0
70
1
0
VERTEX
8
0
10
56.836600000000004
20
13.284890625000001
30
0
0
VERTEX
8
0
10
56.836600000000004
20
13.61949375
30
0
0
VERTEX
8
0
10
58.71710625
20
15.5
30
0
0
VERTEX
8
0
10
59.325921875000006
20
15.5
30
0
0
VERTEX
8
0
10
59.656121875000004
20
15.1698
30
0
0
VERTEX
8
0
10
60.343878125
20
15.1698
30
0
0
VERTEX
8
0
10
60.830200000000005
20
15.656121875
30
0
0
VERTEX
8
0
10
60.830200000000005
20
16.123093750000002
30
0
0
VERTEX
8
0
10
62.353553125000005
20
17.646446875000002
30
0
0
VERTEX
8
0
10
62.371212500000006
20
17.6662
30
0
0
VERTEX
8
0
10
62.389125
20
17.686021875
30
0
42
0.35012812754268074
0
VERTEX
8
0
10
62.392459375
20
18.3098
30
0
0
VERTEX
8
0
10
62.3554375
20
18.351659375
30
0
42
0.0013357757002785623
0
VERTEX
8
0
10
62.353553125000005
20
18.353553125
30
0
0
VERTEX
8
0
10
62
20
18.707106250000002
30
0
0
VERTEX
8
0
10
62
20
21.40714375
30
0
0
VERTEX
8
0
10
62.04169375
20
21.4488375
30
0
42
0.17351662862968317
0
VERTEX
8
0
10
62.2302
20
21.903928125
30
0
0
VERTEX
8
0
10
62.2302
20
23.436071875
30
0
0
VERTEX
8
0
10
62.223168750000006
20
23.507471875
30
0
42
0.9063475582535283
0
VERTEX
8
0
10
60.769800000000004
20
23.436071875
30
0
0
VERTEX
8
0
10
60.769800000000004
20
21.903928125
30
0
0
VERTEX
8
0
10
60.77683125
20
21.832528125
30
0
42
0.14833598864046654
0
VERTEX
8
0
10
60.95830625
20
21.4488375
30
0
0
VERTEX
8
0
10
61
20
21.40714375
30
0
0
VERTEX
8
0
10
61
20
18.5
30
0
0
VERTEX
8
0
10
61.001446875000006
20
18.474118750000002
30
0
0
VERTEX
8
0
10
61.002690625
20
18.44819375
30
0
42
0.14273568292938665
0
VERTEX
8
0
10
61.108371875
20
18.18915
30
0
0
VERTEX
8
0
10
61.145503125000005
20
18.14739375
30
0
42
0.0006684388420158373
0
VERTEX
8
0
10
61.146446875
20
18.146446875000002
30
0
0
VERTEX
8
0
10
61.292893750000005
20
18
30
0
0
VERTEX
8
0
10
60.12309375
20
16.8302
30
0
0
VERTEX
8
0
10
59.656121875000004
20
16.8302
30
0
0
VERTEX
8
0
10
59.325921875000006
20
16.5
30
0
0
VERTEX
8
0
10
58.510000000000005
20
16.5
30
0
0
VERTEX
8
0
10
58.48411875
20
16.498553125
30
0
0
VERTEX
8
0
10
58.45819375
20
16.497309375
30
0
42
0.14273568292938665
0
VERTEX
8
0
10
58.19915
20
16.391628125
30
0
0
VERTEX
8
0
10
58.157393750000004
20
16.354496875000002
30
0
42
0.0006684388420158373
0
VERTEX
8
0
10
58.156446875
20
16.353553125
30
0
0
VERTEX
8
0
10
56.12949375
20
14.326600000000001
30
0
0
VERTEX
8
0
10
55.794890625
20
14.326600000000001
30
0
0
VERTEX
8
0
10
55.363400000000006
20
13.895109375
30
0
0
VERTEX
8
0
10
55.363400000000006
20
13.284890625000001
30
0
0
VERTEX
8
0
10
55.794890625
20
12.8534
30
0
0
VERTEX
8
0
10
56.405109375
20
12.8534
30
0
0
SEQEND
0
POLYLINE
66
1
8
16_copper
10
0.0
20
0.0
30
0.0
70
1
0
VERTEX
8
0
10
61.596078125000005
20
21.368296875000002
30
0
42
0.3578058919557322
0
VERTEX
8
0
10
62.154
20
21.983871875000002
30
0
0
VERTEX
8
0
10
62.154
20
23.356128125
30
0
0
VERTEX
8
0
10
62.147703125
20
23.420078125
30
0
42
0.9063474445600833
0
VERTEX
8
0
10
60.846000000000004
20
23.356128125
30
0
0
VERTEX
8
0
10
60.846000000000004
20
21.983871875000002
30
0
0
VERTEX
8
0
10
60.852296875
20
21.919921875
30
0
42
0.3857420086717843
0
VERTEX
8
0
10
61.532128125
20
21.362000000000002
30
0
0
SEQEND
0
POLYLINE
66
1
8
16_copper
10
0.0
20
0.0
30
0.0
70
1
0
VERTEX
8
0
10
60.754000000000005
20
15.687684375
30
0
0
VERTEX
8
0
10
60.754000000000005
20
16.312315625
30
0
0
VERTEX
8
0
10
60.312315625000004
20
16.754
30
0
0
VERTEX
8
0
10
59.687684375
20
16.754
30
0
0
VERTEX
8
0
10
59.246
20
16.312315625
30
0
0
VERTEX
8
0
10
59.246
20
15.687684375
30
0
0
VERTEX
8
0
10
59.687684375
20
15.246
30
0
0
VERTEX
8
0
10
60.312315625000004
20
15.246
30
0
0
SEQEND
0
POLYLINE
66
1
8
16_copper
10
0.0
20
0.0
30
0.0
70
1
0
VERTEX
8
0
10
56.760400000000004
20
13.31645625
30
0
0
VERTEX
8
0
10
56.760400000000004
20
13.86354375
30
0
0
VERTEX
8
0
10
56.37354375
20
14.2504
30
0
0
VERTEX
8
0
10
55.82645625
20
14.2504
30
0
0
VERTEX
8
0
10
55.439600000000006
20
13.86354375
30
0
0
VERTEX
8
0
10
55.439600000000006
20
13.31645625
30
0
0
VERTEX
8
0
10
55.82645625
20
12.9296
30
0
0
VERTEX
8
0
10
56.37354375
20
12.9296
30
0
0
SEQEND
0
POLYLINE
66
1
8
1_copper
10
0.0
20
0.0
30
0.0
70
1
0
VERTEX
8
0
10
74.8302
20
7.656121875
30
0
0
VERTEX
8
0
10
74.8302
20
8.343878125
30
0
0
VERTEX
8
0
10
74.5
20
8.674078125000001
30
0
0
VERTEX
8
0
10
74.5
20
11.63
30
0
0
VERTEX
8
0
10
74.498553125
20
11.65588125
30
0
0
VERTEX
8
0
10
74.497309375
20
11.681806250000001
30
0
42
0.14273568292938665
0
VERTEX
8
0
10
74.391628125
20
11.940850000000001
30
0
0
VERTEX
8
0
10
74.35449687500001
20
11.98260625
30
0
42
0.0006684388420158373
0
VERTEX
8
0
10
74.353553125
20
11.983553125
30
0
0
VERTEX
8
0
10
72.7766
20
13.560506250000001
30
0
0
VERTEX
8
0
10
72.7766
20
13.895109375
30
0
0
VERTEX
8
0
10
72.345109375
20
14.326600000000001
30
0
0
VERTEX
8
0
10
72.01050625
20
14.326600000000001
30
0
0
VERTEX
8
0
10
69.62
20
16.71710625
30
0
0
VERTEX
8
0
10
69.62
20
21.40714375
30
0
0
VERTEX
8
0
10
69.66169375
20
21.4488375
30
0
42
0.17351662862968317
0
VERTEX
8
0
10
69.8502
20
21.903928125
30
0
0
VERTEX
8
0
10
69.8502
20
23.436071875
30
0
0
VERTEX
8
0
10
69.84316875
20
23.507471875
30
0
42
0.9063475582535283
0
VERTEX
8
0
10
68.38980000000001
20
23.436071875
30
0
0
VERTEX
8
0
10
68.38980000000001
20
21.903928125
30
0
0
VERTEX
8
0
10
68.39683125
20
21.832528125
30
0
42
0.14833598864046654
0
VERTEX
8
0
10
68.57830625
20
21.4488375
30
0
0
VERTEX
8
0
10
68.62
20
21.40714375
30
0
0
VERTEX
8
0
10
68.62
20
16.51
30
0
0
VERTEX
8
0
10
68.621446875
20
16.48411875
30
0
0
VERTEX
8
0
10
68.622690625
20
16.45819375
30
0
42
0.14273568292938665
0
VERTEX
8
0
10
68.72837187500001
20
16.19915
30
0
0
VERTEX
8
0
10
68.76550312500001
20
16.15739375
30
0
42
0.0006684388420158373
0
VERTEX
8
0
10
68.766446875
20
16.156446875
30
0
0
VERTEX
8
0
10
71.3034
20
13.61949375
30
0
0
VERTEX
8
0
10
71.3034
20
13.284890625000001
30
0
0
VERTEX
8
0
10
71.4228375
20
13.165453125
30
0
0
VERTEX
8
0
10
71.42877187500001
20
13.146812500000001
30
0
0
VERTEX
8
0
10
71.434278125
20
13.12743125
30
0
42
0.42182681550623946
0
VERTEX
8
0
10
72.082378125
20
12.822593750000001
30
0
0
VERTEX
8
0
10
72.09482187500001
20
12.828071875000001
30
0
0
VERTEX
8
0
10
73.5
20
11.42289375
30
0
0
VERTEX
8
0
10
73.5
20
8.674078125000001
30
0
0
VERTEX
8
0
10
73.16980000000001
20
8.343878125
30
0
0
VERTEX
8
0
10
73.16980000000001
20
7.656121875
30
0
0
VERTEX
8
0
10
73.656121875
20
7.1698
30
0
0
VERTEX
8
0
10
74.343878125
20
7.1698
30
0
0
SEQEND
0
POLYLINE
66
1
8
16_copper
10
0.0
20
0.0
30
0.0
70
1
0
VERTEX
8
0
10
69.21607812500001
20
21.368296875000002
30
0
42
0.3578058919557322
0
VERTEX
8
0
10
69.774
20
21.983871875000002
30
0
0
VERTEX
8
0
10
69.774
20
23.356128125
30
0
0
VERTEX
8
0
10
69.767703125
20
23.420078125
30
0
42
0.9063474445600833
0
VERTEX
8
0
10
68.46600000000001
20
23.356128125
30
0
0
VERTEX
8
0
10
68.46600000000001
20
21.983871875000002
30
0
0
VERTEX
8
0
10
68.472296875
20
21.919921875
30
0
42
0.3857420086717843
0
VERTEX
8
0
10
69.152128125
20
21.362000000000002
30
0
0
SEQEND
0
POLYLINE
66
1
8
16_copper
10
0.0
20
0.0
30
0.0
70
1
0
VERTEX
8
0
10
72.7004
20
13.31645625
30
0
0
VERTEX
8
0
10
72.7004
20
13.86354375
30
0
0
VERTEX
8
0
10
72.31354375000001
20
14.2504
30
0
0
VERTEX
8
0
10
71.76645625
20
14.2504
30
0
0
VERTEX
8
0
10
71.3796
20
13.86354375
30
0
0
VERTEX
8
0
10
71.3796
20
13.31645625
30
0
0
VERTEX
8
0
10
71.76645625
20
12.9296
30
0
0
VERTEX
8
0
10
72.31354375000001
20
12.9296
30
0
0
SEQEND
0
POLYLINE
66
1
8
16_copper
10
0.0
20
0.0
30
0.0
70
1
0
VERTEX
8
0
10
74.754
20
7.687684375000001
30
0
0
VERTEX
8
0
10
74.754
20
8.312315625
30
0
0
VERTEX
8
0
10
74.312315625
20
8.754
30
0
0
VERTEX
8
0
10
73.687684375
20
8.754
30
0
0
VERTEX
8
0
10
73.24600000000001
20
8.312315625
30
0
0
VERTEX
8
0
10
73.24600000000001
20
7.687684375000001
30
0
0
VERTEX
8
0
10
73.687684375
20
7.246
30
0
0
VERTEX
8
0
10
74.312315625
20
7.246
30
0
0
SEQEND
0
POLYLINE
66
1
8
1_copper
10
0.0
20
0.0
30
0.0
70
1
0
VERTEX
8
0
10
82.8302
20
7.656121875
30
0
0
VERTEX
8
0
10
82.8302
20
8.343878125
30
0
0
VERTEX
8
0
10
82.343878125
20
8.8302
30
0
0
VERTEX
8
0
10
81.87690625
20
8.8302
30
0
0
VERTEX
8
0
10
78.89
20
11.81710625
30
0
0
VERTEX
8
0
10
78.89
20
13.048290625
30
0
0
VERTEX
8
0
10
79.12660000000001
20
13.284890625000001
30
0
0
VERTEX
8
0
10
79.12660000000001
20
13.895109375
30
0
0
VERTEX
8
0
10
78.695109375
20
14.326600000000001
30
0
0
VERTEX
8
0
10
78.084890625
20
14.326600000000001
30
0
0
VERTEX
8
0
10
77.983484375
20
14.22519375
30
0
0
VERTEX
8
0
10
72.16
20
20.048675
30
0
0
VERTEX
8
0
10
72.16
20
21.40714375
30
0
0
VERTEX
8
0
10
72.20169375
20
21.4488375
30
0
42
0.17351662862968317
0
VERTEX
8
0
10
72.39020000000001
20
21.903928125
30
0
0
VERTEX
8
0
10
72.39020000000001
20
23.436071875
30
0
0
VERTEX
8
0
10
72.38316875000001
20
23.507471875
30
0
42
0.9063475582535283
0
VERTEX
8
0
10
70.9298
20
23.436071875
30
0
0
VERTEX
8
0
10
70.9298
20
21.903928125
30
0
0
VERTEX
8
0
10
70.93683125
20
21.832528125
30
0
42
0.14833598864046654
0
VERTEX
8
0
10
71.11830625
20
21.4488375
30
0
0
VERTEX
8
0
10
71.16
20
21.40714375
30
0
0
VERTEX
8
0
10
71.16
20
19.84156875
30
0
0
VERTEX
8
0
10
71.16144687500001
20
19.8156875
30
0
0
VERTEX
8
0
10
71.16269062500001
20
19.789762500000002
30
0
42
0.14273568292938665
0
VERTEX
8
0
10
71.268371875
20
19.530718750000002
30
0
0
VERTEX
8
0
10
71.305503125
20
19.4889625
30
0
42
0.0006684388420158373
0
VERTEX
8
0
10
71.306446875
20
19.488015625
30
0
0
VERTEX
8
0
10
77.55801875
20
13.236443750000001
30
0
0
VERTEX
8
0
10
77.57734375
20
13.219168750000001
30
0
0
VERTEX
8
0
10
77.59655625
20
13.201712500000001
30
0
42
0.11431552374248626
0
VERTEX
8
0
10
77.79938125000001
20
13.102746875000001
30
0
0
VERTEX
8
0
10
77.82490625
20
13.098353125000001
30
0
0
VERTEX
8
0
10
77.84324375
20
13.095046875000001
30
0
0
VERTEX
8
0
10
77.89
20
13.048290625
30
0
0
VERTEX
8
0
10
77.89
20
11.610000000000001
30
0
0
VERTEX
8
0
10
77.891446875
20
11.58411875
30
0
0
VERTEX
8
0
10
77.892690625
20
11.558193750000001
30
0
42
0.14273568292938665
0
VERTEX
8
0
10
77.998371875
20
11.299150000000001
30
0
0
VERTEX
8
0
10
78.035503125
20
11.25739375
30
0
42
0.0006684388420158373
0
VERTEX
8
0
10
78.03644687500001
20
11.256446875
30
0
0
VERTEX
8
0
10
81.16980000000001
20
8.12309375
30
0
0
VERTEX
8
0
10
81.16980000000001
20
7.656121875
30
0
0
VERTEX
8
0
10
81.65612187500001
20
7.1698
30
0
0
VERTEX
8
0
10
82.343878125
20
7.1698
30
0
0
SEQEND
0
POLYLINE
66
1
8
16_copper
10
0.0
20
0.0
30
0.0
70
1
0
VERTEX
8
0
10
71.756078125
20
21.368296875000002
30
0
42
0.3578058919557322
0
VERTEX
8
0
10
72.31400000000001
20
21.983871875000002
30
0
0
VERTEX
8
0
10
72.31400000000001
20
23.356128125
30
0
0
VERTEX
8
0
10
72.307703125
20
23.420078125
30
0
42
0.9063474445600833
0
VERTEX
8
0
10
71.006
20
23.356128125
30
0
0
VERTEX
8
0
10
71.006
20
21.983871875000002
30
0
0
VERTEX
8
0
10
71.012296875
20
21.919921875
30
0
42
0.3857420086717843
0
VERTEX
8
0
10
71.692128125
20
21.362000000000002
30
0
0
SEQEND
0
POLYLINE
66
1
8
16_copper
10
0.0
20
0.0
30
0.0
70
1
0
VERTEX
8
0
10
79.05040000000001
20
13.31645625
30
0
0
VERTEX
8
0
10
79.05040000000001
20
13.86354375
30
0
0
VERTEX
8
0
10
78.66354375
20
14.2504
30
0
0
VERTEX
8
0
10
78.11645625
20
14.2504
30
0
0
VERTEX
8
0
10
77.7296
20
13.86354375
30
0
0
VERTEX
8
0
10
77.7296
20
13.31645625
30
0
0
VERTEX
8
0
10
78.11645625
20
12.9296
30
0
0
VERTEX
8
0
10
78.66354375
20
12.9296
30
0
0
SEQEND
0
POLYLINE
66
1
8
16_copper
10
0.0
20
0.0
30
0.0
70
1
0
VERTEX
8
0
10
82.754
20
7.687684375000001
30
0
0
VERTEX
8
0
10
82.754
20
8.312315625
30
0
0
VERTEX
8
0
10
82.31231562500001
20
8.754
30
0
0
VERTEX
8
0
10
81.687684375
20
8.754
30
0
0
VERTEX
8
0
10
81.24600000000001
20
8.312315625
30
0
0
VERTEX
8
0
10
81.24600000000001
20
7.687684375000001
30
0
0
VERTEX
8
0
10
81.687684375
20
7.246
30
0
0
VERTEX
8
0
10
82.31231562500001
20
7.246
30
0
0
SEQEND
0
POLYLINE
66
1
8
1_copper
10
0.0
20
0.0
30
0.0
70
1
0
VERTEX
8
0
10
88.8302
20
9.656121875
30
0
0
VERTEX
8
0
10
88.8302
20
10.343878125
30
0
0
VERTEX
8
0
10
88.343878125
20
10.830200000000001
30
0
0
VERTEX
8
0
10
87.87690625
20
10.830200000000001
30
0
0
VERTEX
8
0
10
85.449409375
20
13.2577
30
0
0
VERTEX
8
0
10
85.4766
20
13.284890625000001
30
0
0
VERTEX
8
0
10
85.4766
20
13.895109375
30
0
0
VERTEX
8
0
10
85.04510937500001
20
14.326600000000001
30
0
0
VERTEX
8
0
10
84.43489062500001
20
14.326600000000001
30
0
0
VERTEX
8
0
10
84.198290625
20
14.09
30
0
0
VERTEX
8
0
10
81.7601375
20
14.09
30
0
0
VERTEX
8
0
10
79.669984375
20
16.180153125
30
0
0
VERTEX
8
0
10
79.650665625
20
16.197425
30
0
0
VERTEX
8
0
10
79.63145
20
16.214884375
30
0
42
0.1427356176412374
0
VERTEX
8
0
10
79.37355000000001
20
16.323328125
30
0
0
VERTEX
8
0
10
79.31776875
20
16.326596875
30
0
42
0.0006687526842779185
0
VERTEX
8
0
10
79.31643125000001
20
16.3266
30
0
0
VERTEX
8
0
10
78.71050625000001
20
16.3266
30
0
0
VERTEX
8
0
10
74.7
20
20.33710625
30
0
0
VERTEX
8
0
10
74.7
20
21.40714375
30
0
0
VERTEX
8
0
10
74.74169375000001
20
21.4488375
30
0
42
0.17351662862968317
0
VERTEX
8
0
10
74.9302
20
21.903928125
30
0
0
VERTEX
8
0
10
74.9302
20
23.436071875
30
0
0
VERTEX
8
0
10
74.92316875
20
23.507471875
30
0
42
0.9063475582535283
0
VERTEX
8
0
10
73.4698
20
23.436071875
30
0
0
VERTEX
8
0
10
73.4698
20
21.903928125
30
0
0
VERTEX
8
0
10
73.47683125
20
21.832528125
30
0
42
0.14833598864046654
0
VERTEX
8
0
10
73.65830625000001
20
21.4488375
30
0
0
VERTEX
8
0
10
73.7
20
21.40714375
30
0
0
VERTEX
8
0
10
73.7
20
20.130000000000003
30
0
0
VERTEX
8
0
10
73.701446875
20
20.10411875
30
0
0
VERTEX
8
0
10
73.702690625
20
20.07819375
30
0
42
0.14273568292938665
0
VERTEX
8
0
10
73.808371875
20
19.81915
30
0
0
VERTEX
8
0
10
73.84550312500001
20
19.77739375
30
0
42
0.0006684388420158373
0
VERTEX
8
0
10
73.846446875
20
19.776446875
30
0
0
VERTEX
8
0
10
78.14984687500001
20
15.473046875000001
30
0
0
VERTEX
8
0
10
78.169165625
20
15.455775000000001
30
0
0
VERTEX
8
0
10
78.18838125
20
15.438315625000001
30
0
42
0.1427356176412374
0
VERTEX
8
0
10
78.44628125
20
15.329871875
30
0
0
VERTEX
8
0
10
78.50206250000001
20
15.326603125
30
0
42
0.0006687526842779185
0
VERTEX
8
0
10
78.5034
20
15.326600000000001
30
0
0
VERTEX
8
0
10
79.109325
20
15.326600000000001
30
0
0
VERTEX
8
0
10
81.199478125
20
13.236446875
30
0
0
VERTEX
8
0
10
81.21879687500001
20
13.219175
30
0
0
VERTEX
8
0
10
81.23801250000001
20
13.201715625
30
0
42
0.1427356176412374
0
VERTEX
8
0
10
81.4959125
20
13.093271875000001
30
0
0
VERTEX
8
0
10
81.55169375
20
13.090003125
30
0
42
0.0006687526842779185
0
VERTEX
8
0
10
81.55303125
20
13.09
30
0
0
VERTEX
8
0
10
84.198290625
20
13.09
30
0
0
VERTEX
8
0
10
84.43489062500001
20
12.8534
30
0
0
VERTEX
8
0
10
84.43949375000001
20
12.8534
30
0
0
VERTEX
8
0
10
87.16980000000001
20
10.12309375
30
0
0
VERTEX
8
0
10
87.16980000000001
20
9.656121875
30
0
0
VERTEX
8
0
10
87.65612187500001
20
9.1698
30
0
0
VERTEX
8
0
10
88.343878125
20
9.1698
30
0
0
SEQEND
0
POLYLINE
66
1
8
16_copper
10
0.0
20
0.0
30
0.0
70
1
0
VERTEX
8
0
10
74.29607812500001
20
21.368296875000002
30
0
42
0.3578058919557322
0
VERTEX
8
0
10
74.854
20
21.983871875000002
30
0
0
VERTEX
8
0
10
74.854
20
23.356128125
30
0
0
VERTEX
8
0
10
74.84770312500001
20
23.420078125
30
0
42
0.9063474445600833
0
VERTEX
8
0
10
73.546
20
23.356128125
30
0
0
VERTEX
8
0
10
73.546
20
21.983871875000002
30
0
0
VERTEX
8
0
10
73.55229687500001
20
21.919921875
30
0
42
0.3857420086717843
0
VERTEX
8
0
10
74.232128125
20
21.362000000000002
30
0
0
SEQEND
0
POLYLINE
66
1
8
16_copper
10
0.0
20
0.0
30
0.0
70
1
0
VERTEX
8
0
10
85.4004
20
13.31645625
30
0
0
VERTEX
8
0
10
85.4004
20
13.86354375
30
0
0
VERTEX
8
0
10
85.01354375000001
20
14.2504
30
0
0
VERTEX
8
0
10
84.46645625000001
20
14.2504
30
0
0
VERTEX
8
0
10
84.0796
20
13.86354375
30
0
0
VERTEX
8
0
10
84.0796
20
13.31645625
30
0
0
VERTEX
8
0
10
84.46645625000001
20
12.9296
30
0
0
VERTEX
8
0
10
85.01354375000001
20
12.9296
30
0
0
SEQEND
0
POLYLINE
66
1
8
16_copper
10
0.0
20
0.0
30
0.0
70
1
0
VERTEX
8
0
10
88.754
20
9.687684375
30
0
0
VERTEX
8
0
10
88.754
20
10.312315625
30
0
0
VERTEX
8
0
10
88.31231562500001
20
10.754000000000001
30
0
0
VERTEX
8
0
10
87.687684375
20
10.754000000000001
30
0
0
VERTEX
8
0
10
87.24600000000001
20
10.312315625
30
0
0
VERTEX
8
0
10
87.24600000000001
20
9.687684375
30
0
0
VERTEX
8
0
10
87.687684375
20
9.246
30
0
0
VERTEX
8
0
10
88.31231562500001
20
9.246
30
0
0
SEQEND
0
POLYLINE
66
1
8
1_copper
10
0.0
20
0.0
30
0.0
70
1
0
VERTEX
8
0
10
91.06660000000001
20
14.554890625
30
0
0
VERTEX
8
0
10
91.06660000000001
20
15.165109375
30
0
0
VERTEX
8
0
10
90.635109375
20
15.5966
30
0
0
VERTEX
8
0
10
90.5
20
15.5966
30
0
0
VERTEX
8
0
10
90.5
20
17.325921875000002
30
0
0
VERTEX
8
0
10
90.8302
20
17.656121875
30
0
0
VERTEX
8
0
10
90.8302
20
18.343878125
30
0
0
VERTEX
8
0
10
90.343878125
20
18.8302
30
0
0
VERTEX
8
0
10
89.87690625
20
18.8302
30
0
0
VERTEX
8
0
10
88.353553125
20
20.353553125
30
0
0
VERTEX
8
0
10
88.33380000000001
20
20.371212500000002
30
0
0
VERTEX
8
0
10
88.313978125
20
20.389125
30
0
42
0.35012812754268074
0
VERTEX
8
0
10
87.6902
20
20.392459375
30
0
0
VERTEX
8
0
10
87.648340625
20
20.3554375
30
0
42
0.0013357757002785623
0
VERTEX
8
0
10
87.64644687500001
20
20.353553125
30
0
0
VERTEX
8
0
10
86.07229375
20
18.779400000000003
30
0
0
VERTEX
8
0
10
81.05583750000001
20
18.779400000000003
30
0
0
VERTEX
8
0
10
81.02995625
20
18.777953125
30
0
0
VERTEX
8
0
10
81.00403125
20
18.776709375
30
0
42
0.02867426728703228
0
VERTEX
8
0
10
80.94495
20
18.76695
30
0
0
VERTEX
8
0
10
80.919853125
20
18.759743750000002
30
0
0
VERTEX
8
0
10
80.89921562500001
20
18.754
30
0
0
VERTEX
8
0
10
79.95310625
20
18.754
30
0
0
VERTEX
8
0
10
77.26998125
20
21.437125
30
0
0
VERTEX
8
0
10
77.28169375
20
21.4488375
30
0
42
0.17351662862968317
0
VERTEX
8
0
10
77.4702
20
21.903928125
30
0
0
VERTEX
8
0
10
77.4702
20
23.436071875
30
0
0
VERTEX
8
0
10
77.46316875000001
20
23.507471875
30
0
42
0.9063475582535283
0
VERTEX
8
0
10
76.0098
20
23.436071875
30
0
0
VERTEX
8
0
10
76.0098
20
21.903928125
30
0
0
VERTEX
8
0
10
76.01683125000001
20
21.832528125
30
0
42
0.14833598864046654
0
VERTEX
8
0
10
76.19830625
20
21.4488375
30
0
0
VERTEX
8
0
10
76.24000000000001
20
21.40714375
30
0
0
VERTEX
8
0
10
76.24000000000001
20
21.26
30
0
42
0.1693184677370466
0
VERTEX
8
0
10
76.348371875
20
20.94915
30
0
0
VERTEX
8
0
10
76.385503125
20
20.90739375
30
0
42
0.0006684388420158373
0
VERTEX
8
0
10
76.386446875
20
20.906446875
30
0
0
VERTEX
8
0
10
79.392446875
20
17.900446875
30
0
0
VERTEX
8
0
10
79.411765625
20
17.883175
30
0
0
VERTEX
8
0
10
79.43098125
20
17.865715625
30
0
42
0.1427356176412374
0
VERTEX
8
0
10
79.68888125000001
20
17.757271875
30
0
0
VERTEX
8
0
10
79.7446625
20
17.754003125
30
0
42
0.0006687526842779185
0
VERTEX
8
0
10
79.74600000000001
20
17.754
30
0
0
VERTEX
8
0
10
81.0304375
20
17.754
30
0
0
VERTEX
8
0
10
81.05631875
20
17.755446875
30
0
0
VERTEX
8
0
10
81.08224375
20
17.756690625
30
0
42
0.029967782573122333
0
VERTEX
8
0
10
81.14132500000001
20
17.766450000000003
30
0
0
VERTEX
8
0
10
81.166421875
20
17.773656250000002
30
0
0
VERTEX
8
0
10
81.187059375
20
17.779400000000003
30
0
0
VERTEX
8
0
10
86.27940000000001
20
17.779400000000003
30
0
0
VERTEX
8
0
10
86.30528125000001
20
17.780846875
30
0
0
VERTEX
8
0
10
86.33120625000001
20
17.782090625000002
30
0
42
0.14273568292938665
0
VERTEX
8
0
10
86.59025
20
17.887771875000002
30
0
0
VERTEX
8
0
10
86.63200625
20
17.924903125
30
0
42
0.0006684388420158373
0
VERTEX
8
0
10
86.632953125
20
17.925846875
30
0
0
VERTEX
8
0
10
88
20
19.29289375
30
0
0
VERTEX
8
0
10
89.16980000000001
20
18.123093750000002
30
0
0
VERTEX
8
0
10
89.16980000000001
20
17.656121875
30
0
0
VERTEX
8
0
10
89.5
20
17.325921875000002
30
0
0
VERTEX
8
0
10
89.5
20
15.190000000000001
30
0
0
VERTEX
8
0
10
89.501446875
20
15.16411875
30
0
0
VERTEX
8
0
10
89.502690625
20
15.138193750000001
30
0
42
0.11431649255875836
0
VERTEX
8
0
10
89.57613125
20
14.924793750000001
30
0
0
VERTEX
8
0
10
89.591034375
20
14.90369375
30
0
0
VERTEX
8
0
10
89.5934
20
14.900287500000001
30
0
0
VERTEX
8
0
10
89.5934
20
14.554890625
30
0
0
VERTEX
8
0
10
90.024890625
20
14.1234
30
0
0
VERTEX
8
0
10
90.635109375
20
14.1234
30
0
0
SEQEND
0
POLYLINE
66
1
8
16_copper
10
0.0
20
0.0
30
0.0
70
1
0
VERTEX
8
0
10
76.836078125
20
21.368296875000002
30
0
42
0.3578058919557322
0
VERTEX
8
0
10
77.394
20
21.983871875000002
30
0
0
VERTEX
8
0
10
77.394
20
23.356128125
30
0
0
VERTEX
8
0
10
77.387703125
20
23.420078125
30
0
42
0.9063474445600833
0
VERTEX
8
0
10
76.086
20
23.356128125
30
0
0
VERTEX
8
0
10
76.086
20
21.983871875000002
30
0
0
VERTEX
8
0
10
76.092296875
20
21.919921875
30
0
42
0.3857420086717843
0
VERTEX
8
0
10
76.77212812500001
20
21.362000000000002
30
0
0
SEQEND
0
POLYLINE
66
1
8
16_copper
10
0.0
20
0.0
30
0.0
70
1
0
VERTEX
8
0
10
90.754
20
17.687684375
30
0
0
VERTEX
8
0
10
90.754
20
18.312315625
30
0
0
VERTEX
8
0
10
90.31231562500001
20
18.754
30
0
0
VERTEX
8
0
10
89.687684375
20
18.754
30
0
0
VERTEX
8
0
10
89.24600000000001
20
18.312315625
30
0
0
VERTEX
8
0
10
89.24600000000001
20
17.687684375
30
0
0
VERTEX
8
0
10
89.687684375
20
17.246000000000002
30
0
0
VERTEX
8
0
10
90.31231562500001
20
17.246000000000002
30
0
0
SEQEND
0
POLYLINE
66
1
8
16_copper
10
0.0
20
0.0
30
0.0
70
1
0
VERTEX
8
0
10
90.99040000000001
20
14.586456250000001
30
0
0
VERTEX
8
0
10
90.99040000000001
20
15.133543750000001
30
0
0
VERTEX
8
0
10
90.60354375
20
15.5204
30
0
0
VERTEX
8
0
10
90.05645625000001
20
15.5204
30
0
0
VERTEX
8
0
10
89.6696
20
15.133543750000001
30
0
0
VERTEX
8
0
10
89.6696
20
14.586456250000001
30
0
0
VERTEX
8
0
10
90.05645625000001
20
14.1996
30
0
0
VERTEX
8
0
10
90.60354375
20
14.1996
30
0
0
SEQEND
0
POLYLINE
66
1
8
1_copper
10
0.0
20
0.0
30
0.0
70
1
0
VERTEX
8
0
10
60.830200000000005
20
7.656121875
30
0
0
VERTEX
8
0
10
60.830200000000005
20
8.12309375
30
0
0
VERTEX
8
0
10
62.073553125000004
20
9.366446875000001
30
0
0
VERTEX
8
0
10
62.090825
20
9.385765625000001
30
0
0
VERTEX
8
0
10
62.108284375000004
20
9.40498125
30
0
42
0.1427356176412374
0
VERTEX
8
0
10
62.216728125
20
9.66288125
30
0
0
VERTEX
8
0
10
62.219996875
20
9.7186625
30
0
42
0.0006687526842779185
0
VERTEX
8
0
10
62.220000000000006
20
9.72
30
0
0
VERTEX
8
0
10
62.220000000000006
20
13.048290625
30
0
0
VERTEX
8
0
10
62.4566
20
13.284890625000001
30
0
0
VERTEX
8
0
10
62.4566
20
13.61949375
30
0
0
VERTEX
8
0
10
64.393553125
20
15.556446875
30
0
0
VERTEX
8
0
10
64.410825
20
15.575765625
30
0
0
VERTEX
8
0
10
64.428284375
20
15.59498125
30
0
42
0.1427356176412374
0
VERTEX
8
0
10
64.536728125
20
15.852881250000001
30
0
0
VERTEX
8
0
10
64.539996875
20
15.9086625
30
0
42
0.0006687526842779185
0
VERTEX
8
0
10
64.54
20
15.91
30
0
0
VERTEX
8
0
10
64.54
20
21.40714375
30
0
0
VERTEX
8
0
10
64.58169375
20
21.4488375
30
0
42
0.17351662862968317
0
VERTEX
8
0
10
64.7702
20
21.903928125
30
0
0
VERTEX
8
0
10
64.7702
20
23.436071875
30
0
0
VERTEX
8
0
10
64.76316875
20
23.507471875
30
0
42
0.9063475582535283
0
VERTEX
8
0
10
63.3098
20
23.436071875
30
0
0
VERTEX
8
0
10
63.3098
20
21.903928125
30
0
0
VERTEX
8
0
10
63.31683125
20
21.832528125
30
0
42
0.14833598864046654
0
VERTEX
8
0
10
63.498306250000006
20
21.4488375
30
0
0
VERTEX
8
0
10
63.540000000000006
20
21.40714375
30
0
0
VERTEX
8
0
10
63.540000000000006
20
16.11710625
30
0
0
VERTEX
8
0
10
61.749493750000006
20
14.326600000000001
30
0
0
VERTEX
8
0
10
61.414890625000005
20
14.326600000000001
30
0
0
VERTEX
8
0
10
60.9834
20
13.895109375
30
0
0
VERTEX
8
0
10
60.9834
20
13.284890625000001
30
0
0
VERTEX
8
0
10
61.220000000000006
20
13.048290625
30
0
0
VERTEX
8
0
10
61.220000000000006
20
9.927106250000001
30
0
0
VERTEX
8
0
10
60.12309375
20
8.8302
30
0
0
VERTEX
8
0
10
59.656121875000004
20
8.8302
30
0
0
VERTEX
8
0
10
59.1698
20
8.343878125
30
0
0
VERTEX
8
0
10
59.1698
20
7.656121875
30
0
0
VERTEX
8
0
10
59.656121875000004
20
7.1698
30
0
0
VERTEX
8
0
10
60.343878125
20
7.1698
30
0
0
SEQEND
0
POLYLINE
66
1
8
16_copper
10
0.0
20
0.0
30
0.0
70
1
0
VERTEX
8
0
10
64.136078125
20
21.368296875000002
30
0
42
0.3578058919557322
0
VERTEX
8
0
10
64.694
20
21.983871875000002
30
0
0
VERTEX
8
0
10
64.694
20
23.356128125
30
0
0
VERTEX
8
0
10
64.687703125
20
23.420078125
30
0
42
0.9063474445600833
0
VERTEX
8
0
10
63.386
20
23.356128125
30
0
0
VERTEX
8
0
10
63.386
20
21.983871875000002
30
0
0
VERTEX
8
0
10
63.392296875
20
21.919921875
30
0
42
0.3857420086717843
0
VERTEX
8
0
10
64.072128125
20
21.362000000000002
30
0
0
SEQEND
0
POLYLINE
66
1
8
16_copper
10
0.0
20
0.0
30
0.0
70
1
0
VERTEX
8
0
10
62.3804
20
13.31645625
30
0
0
VERTEX
8
0
10
62.3804
20
13.86354375
30
0
0
VERTEX
8
0
10
61.99354375
20
14.2504
30
0
0
VERTEX
8
0
10
61.446456250000004
20
14.2504
30
0
0
VERTEX
8
0
10
61.0596
20
13.86354375
30
0
0
VERTEX
8
0
10
61.0596
20
13.31645625
30
0
0
VERTEX
8
0
10
61.446456250000004
20
12.9296
30
0
0
VERTEX
8
0
10
61.99354375
20
12.9296
30
0
0
SEQEND
0
POLYLINE
66
1
8
16_copper
10
0.0
20
0.0
30
0.0
70
1
0
VERTEX
8
0
10
60.754000000000005
20
7.687684375000001
30
0
0
VERTEX
8
0
10
60.754000000000005
20
8.312315625
30
0
0
VERTEX
8
0
10
60.312315625000004
20
8.754
30
0
0
VERTEX
8
0
10
59.687684375
20
8.754
30
0
0
VERTEX
8
0
10
59.246
20
8.312315625
30
0
0
VERTEX
8
0
10
59.246
20
7.687684375000001
30
0
0
VERTEX
8
0
10
59.687684375
20
7.246
30
0
0
VERTEX
8
0
10
60.312315625000004
20
7.246
30
0
0
SEQEND
0
POLYLINE
66
1
8
1_copper
10
0.0
20
0.0
30
0.0
70
1
0
VERTEX
8
0
10
66.8302
20
7.656121875
30
0
0
VERTEX
8
0
10
66.8302
20
8.12309375
30
0
0
VERTEX
8
0
10
68.353553125
20
9.646446875
30
0
0
VERTEX
8
0
10
68.370825
20
9.665765625
30
0
0
VERTEX
8
0
10
68.388284375
20
9.68498125
30
0
42
0.1427356176412374
0
VERTEX
8
0
10
68.496728125
20
9.942881250000001
30
0
0
VERTEX
8
0
10
68.49999687500001
20
9.9986625
30
0
42
0.0006687526842779185
0
VERTEX
8
0
10
68.5
20
10
30
0
0
VERTEX
8
0
10
68.5
20
13.168290625000001
30
0
0
VERTEX
8
0
10
68.6166
20
13.284890625000001
30
0
0
VERTEX
8
0
10
68.6166
20
13.895109375
30
0
0
VERTEX
8
0
10
68.18510937500001
20
14.326600000000001
30
0
0
VERTEX
8
0
10
67.85050625000001
20
14.326600000000001
30
0
0
VERTEX
8
0
10
67.08
20
15.097106250000001
30
0
0
VERTEX
8
0
10
67.08
20
21.40714375
30
0
0
VERTEX
8
0
10
67.12169375
20
21.4488375
30
0
42
0.17351662862968317
0
VERTEX
8
0
10
67.31020000000001
20
21.903928125
30
0
0
VERTEX
8
0
10
67.31020000000001
20
23.436071875
30
0
0
VERTEX
8
0
10
67.30316875
20
23.507471875
30
0
42
0.9063475582535283
0
VERTEX
8
0
10
65.8498
20
23.436071875
30
0
0
VERTEX
8
0
10
65.8498
20
21.903928125
30
0
0
VERTEX
8
0
10
65.85683125
20
21.832528125
30
0
42
0.14833598864046654
0
VERTEX
8
0
10
66.03830625
20
21.4488375
30
0
0
VERTEX
8
0
10
66.08
20
21.40714375
30
0
0
VERTEX
8
0
10
66.08
20
14.89
30
0
0
VERTEX
8
0
10
66.081446875
20
14.864118750000001
30
0
0
VERTEX
8
0
10
66.082690625
20
14.83819375
30
0
42
0.14273568292938665
0
VERTEX
8
0
10
66.188371875
20
14.57915
30
0
0
VERTEX
8
0
10
66.225503125
20
14.537393750000001
30
0
42
0.0006684388420158373
0
VERTEX
8
0
10
66.22644687500001
20
14.536446875000001
30
0
0
VERTEX
8
0
10
67.1434
20
13.61949375
30
0
0
VERTEX
8
0
10
67.1434
20
13.284890625000001
30
0
0
VERTEX
8
0
10
67.5
20
12.928290625
30
0
0
VERTEX
8
0
10
67.5
20
10.20710625
30
0
0
VERTEX
8
0
10
66.12309375000001
20
8.8302
30
0
0
VERTEX
8
0
10
65.656121875
20
8.8302
30
0
0
VERTEX
8
0
10
65.16980000000001
20
8.343878125
30
0
0
VERTEX
8
0
10
65.16980000000001
20
7.656121875
30
0
0
VERTEX
8
0
10
65.656121875
20
7.1698
30
0
0
VERTEX
8
0
10
66.343878125
20
7.1698
30
0
0
SEQEND
0
POLYLINE
66
1
8
16_copper
10
0.0
20
0.0
30
0.0
70
1
0
VERTEX
8
0
10
66.676078125
20
21.368296875000002
30
0
42
0.3578058919557322
0
VERTEX
8
0
10
67.23400000000001
20
21.983871875000002
30
0
0
VERTEX
8
0
10
67.23400000000001
20
23.356128125
30
0
0
VERTEX
8
0
10
67.227703125
20
23.420078125
30
0
42
0.9063474445600833
0
VERTEX
8
0
10
65.926
20
23.356128125
30
0
0
VERTEX
8
0
10
65.926
20
21.983871875000002
30
0
0
VERTEX
8
0
10
65.932296875
20
21.919921875
30
0
42
0.3857420086717843
0
VERTEX
8
0
10
66.612128125
20
21.362000000000002
30
0
0
SEQEND
0
POLYLINE
66
1
8
16_copper
10
0.0
20
0.0
30
0.0
70
1
0
VERTEX
8
0
10
68.5404
20
13.31645625
30
0
0
VERTEX
8
0
10
68.5404
20
13.86354375
30
0
0
VERTEX
8
0
10
68.15354375
20
14.2504
30
0
0
VERTEX
8
0
10
67.60645625000001
20
14.2504
30
0
0
VERTEX
8
0
10
67.2196
20
13.86354375
30
0
0
VERTEX
8
0
10
67.2196
20
13.31645625
30
0
0
VERTEX
8
0
10
67.60645625000001
20
12.9296
30
0
0
VERTEX
8
0
10
68.15354375
20
12.9296
30
0
0
SEQEND
0
POLYLINE
66
1
8
16_copper
10
0.0
20
0.0
30
0.0
70
1
0
VERTEX
8
0
10
66.754
20
7.687684375000001
30
0
0
VERTEX
8
0
10
66.754
20
8.312315625
30
0
0
VERTEX
8
0
10
66.312315625
20
8.754
30
0
0
VERTEX
8
0
10
65.687684375
20
8.754
30
0
0
VERTEX
8
0
10
65.24600000000001
20
8.312315625
30
0
0
VERTEX
8
0
10
65.24600000000001
20
7.687684375000001
30
0
0
VERTEX
8
0
10
65.687684375
20
7.246
30
0
0
VERTEX
8
0
10
66.312315625
20
7.246
30
0
0
SEQEND
0
POLYLINE
66
1
8
1_copper
10
0.0
20
0.0
30
0.0
70
1
0
VERTEX
8
0
10
48.32
20
8.433950000000001
30
0
0
VERTEX
8
0
10
48.32
20
9.48605
30
0
0
VERTEX
8
0
10
47.57605
20
10.23
30
0
0
VERTEX
8
0
10
46.52395
20
10.23
30
0
0
VERTEX
8
0
10
46.505528125000005
20
10.211578125
30
0
0
VERTEX
8
0
10
46.5
20
10.21710625
30
0
0
VERTEX
8
0
10
46.5
20
25.5
30
0
0
VERTEX
8
0
10
51.36621875
20
25.5
30
0
0
VERTEX
8
0
10
51.3921
20
25.501446875000003
30
0
0
VERTEX
8
0
10
51.418025
20
25.502690625
30
0
42
0.14273568292938665
0
VERTEX
8
0
10
51.677068750000004
20
25.608371875
30
0
0
VERTEX
8
0
10
51.718825
20
25.645503125
30
0
42
0.0006684388420158373
0
VERTEX
8
0
10
51.719771875
20
25.646446875000002
30
0
0
VERTEX
8
0
10
57.573325000000004
20
31.5
30
0
0
VERTEX
8
0
10
64
20
31.5
30
0
0
VERTEX
8
0
10
64.02588125
20
31.501446875000003
30
0
0
VERTEX
8
0
10
64.05180625
20
31.502690625000003
30
0
42
0.14273568292938665
0
VERTEX
8
0
10
64.31085
20
31.608371875000003
30
0
0
VERTEX
8
0
10
64.35260625000001
20
31.645503125
30
0
42
0.0006684388420158373
0
VERTEX
8
0
10
64.353553125
20
31.646446875000002
30
0
0
VERTEX
8
0
10
64.393553125
20
31.686446875
30
0
42
0.09391419274933373
0
VERTEX
8
0
10
64.50010937500001
20
31.84629375
30
0
0
VERTEX
8
0
10
64.51034375
20
31.870362500000002
30
0
0
VERTEX
8
0
10
64.51092187500001
20
31.872300000000003
30
0
0
VERTEX
8
0
10
64.51168750000001
20
31.874140625000003
30
0
42
0.05596804978044367
0
VERTEX
8
0
10
64.536728125
20
31.982881250000002
30
0
0
VERTEX
8
0
10
64.539996875
20
32.0386625
30
0
42
0.0006687526842779185
0
VERTEX
8
0
10
64.54
20
32.04
30
0
0
VERTEX
8
0
10
64.54
20
36.647143750000005
30
0
0
VERTEX
8
0
10
64.58169375
20
36.6888375
30
0
42
0.17351662862968317
0
VERTEX
8
0
10
64.7702
20
37.143928125
30
0
0
VERTEX
8
0
10
64.7702
20
38.676071875000005
30
0
0
VERTEX
8
0
10
64.76316875
20
38.747471875
30
0
42
0.9063475582535283
0
VERTEX
8
0
10
63.3098
20
38.676071875000005
30
0
0
VERTEX
8
0
10
63.3098
20
37.143928125
30
0
0
VERTEX
8
0
10
63.31683125
20
37.072528125000005
30
0
42
0.14833598864046654
0
VERTEX
8
0
10
63.498306250000006
20
36.6888375
30
0
0
VERTEX
8
0
10
63.540000000000006
20
36.647143750000005
30
0
0
VERTEX
8
0
10
63.540000000000006
20
32.5
30
0
0
VERTEX
8
0
10
57.36621875
20
32.5
30
0
0
VERTEX
8
0
10
57.340337500000004
20
32.498553125
30
0
0
VERTEX
8
0
10
57.3144125
20
32.497309375
30
0
42
0.14273568292938665
0
VERTEX
8
0
10
57.05536875
20
32.391628125000004
30
0
0
VERTEX
8
0
10
57.0136125
20
32.354496875
30
0
42
0.0006684388420158373
0
VERTEX
8
0
10
57.012665625000004
20
32.353553125000005
30
0
0
VERTEX
8
0
10
51.1591125
20
26.5
30
0
0
VERTEX
8
0
10
46
20
26.5
30
0
0
VERTEX
8
0
10
45.973478125
20
26.498515625
30
0
0
VERTEX
8
0
10
45.9468625
20
26.49716875
30
0
42
0.3501289138148639
0
VERTEX
8
0
10
45.503428125
20
26.058446875
30
0
0
VERTEX
8
0
10
45.500006250000006
20
26.002671875
30
0
42
0.0013359422777441622
0
VERTEX
8
0
10
45.5
20
26
30
0
0
VERTEX
8
0
10
45.5
20
10.01
30
0
0
VERTEX
8
0
10
45.501446875
20
9.98411875
30
0
0
VERTEX
8
0
10
45.502690625
20
9.958193750000001
30
0
42
0.14273568292938665
0
VERTEX
8
0
10
45.608371875
20
9.699150000000001
30
0
0
VERTEX
8
0
10
45.645503125000005
20
9.65739375
30
0
42
0.0006684388420158373
0
VERTEX
8
0
10
45.646446875
20
9.656446875
30
0
0
VERTEX
8
0
10
45.798421875
20
9.504471875
30
0
0
VERTEX
8
0
10
45.78
20
9.48605
30
0
0
VERTEX
8
0
10
45.78
20
8.433950000000001
30
0
0
VERTEX
8
0
10
46.52395
20
7.69
30
0
0
VERTEX
8
0
10
47.57605
20
7.69
30
0
0
SEQEND
0
POLYLINE
66
1
8
16_copper
10
0.0
20
0.0
30
0.0
70
1
0
VERTEX
8
0
10
64.136078125
20
36.608296875
30
0
42
0.3578058919557322
0
VERTEX
8
0
10
64.694
20
37.223871875
30
0
0
VERTEX
8
0
10
64.694
20
38.596128125
30
0
0
VERTEX
8
0
10
64.687703125
20
38.660078125000005
30
0
42
0.9063474445600833
0
VERTEX
8
0
10
63.386
20
38.596128125
30
0
0
VERTEX
8
0
10
63.386
20
37.223871875
30
0
0
VERTEX
8
0
10
63.392296875
20
37.159921875
30
0
42
0.3857420086717843
0
VERTEX
8
0
10
64.072128125
20
36.602000000000004
30
0
0
SEQEND
0
POLYLINE
66
1
8
16_copper
10
0.0
20
0.0
30
0.0
70
1
0
VERTEX
8
0
10
48.32
20
8.433950000000001
30
0
0
VERTEX
8
0
10
48.32
20
9.48605
30
0
0
VERTEX
8
0
10
47.57605
20
10.23
30
0
0
VERTEX
8
0
10
46.52395
20
10.23
30
0
0
VERTEX
8
0
10
45.78
20
9.48605
30
0
0
VERTEX
8
0
10
45.78
20
8.433950000000001
30
0
0
VERTEX
8
0
10
46.52395
20
7.69
30
0
0
VERTEX
8
0
10
47.57605
20
7.69
30
0
0
SEQEND
0
CIRCLE
8
drills_PTH
10
39.43
20
8.96
30
0
40
0.508
0
CIRCLE
8
drills_PTH
10
47.050000000000004
20
8.96
30
0
40
0.508
0
CIRCLE
8
drills_PTH
10
88
20
10
30
0
40
0.5
0
CIRCLE
8
drills_PTH
10
90
20
18
30
0
40
0.5
0
CIRCLE
8
drills_PTH
10
42
20
32
30
0
40
0.5
0
CIRCLE
8
drills_PTH
10
42
20
38
30
0
40
0.5
0
CIRCLE
8
drills_PTH
10
60
20
16
30
0
40
0.5
0
CIRCLE
8
drills_PTH
10
60
20
8
30
0
40
0.5
0
CIRCLE
8
drills_PTH
10
66
20
8
30
0
40
0.5
0
CIRCLE
8
drills_PTH
10
74
20
8
30
0
40
0.5
0
CIRCLE
8
drills_PTH
10
82
20
8
30
0
40
0.5
0
CIRCLE
8
drills_PTH
10
42.830000000000005
20
62.77
30
0
40
0.40640000000000004
0
CIRCLE
8
drills_PTH
10
42.830000000000005
20
65.31
30
0
40
0.40640000000000004
0
CIRCLE
8
drills_PTH
10
50.260000000000005
20
62.77
30
0
40
0.40640000000000004
0
CIRCLE
8
drills_PTH
10
50.260000000000005
20
65.31
30
0
40
0.40640000000000004
0
CIRCLE
8
drills_PTH
10
57.690000000000005
20
62.77
30
0
40
0.40640000000000004
0
CIRCLE
8
drills_PTH
10
57.690000000000005
20
65.31
30
0
40
0.40640000000000004
0
CIRCLE
8
drills_PTH
10
65.12
20
62.77
30
0
40
0.40640000000000004
0
CIRCLE
8
drills_PTH
10
65.12
20
65.31
30
0
40
0.40640000000000004
0
CIRCLE
8
drills_PTH
10
72.55
20
64.77
30
0
40
0.40640000000000004
0
CIRCLE
8
drills_PTH
10
72.55
20
67.31
30
0
40
0.40640000000000004
0
CIRCLE
8
drills_PTH
10
79.98
20
62.77
30
0
40
0.40640000000000004
0
CIRCLE
8
drills_PTH
10
79.98
20
65.31
30
0
40
0.40640000000000004
0
CIRCLE
8
drills_PTH
10
87.41000000000001
20
62.77
30
0
40
0.40640000000000004
0
CIRCLE
8
drills_PTH
10
87.41000000000001
20
65.31
30
0
40
0.40640000000000004
0
CIRCLE
8
drills_PTH
10
67.88000000000001
20
13.59
30
0
40
0.40640000000000004
0
CIRCLE
8
drills_PTH
10
61.720000000000006
20
0.89
30
0
40
0.40640000000000004
0
CIRCLE
8
drills_PTH
10
61.720000000000006
20
13.59
30
0
40
0.40640000000000004
0
CIRCLE
8
drills_PTH
10
56.1
20
0.89
30
0
40
0.40640000000000004
0
CIRCLE
8
drills_PTH
10
56.1
20
13.59
30
0
40
0.40640000000000004
0
CIRCLE
8
drills_PTH
10
47.56
20
57.690000000000005
30
0
40
0.40640000000000004
0
CIRCLE
8
drills_PTH
10
54.99
20
46.99
30
0
40
0.40640000000000004
0
CIRCLE
8
drills_PTH
10
54.99
20
59.690000000000005
30
0
40
0.40640000000000004
0
CIRCLE
8
drills_PTH
10
72.42
20
44.99
30
0
40
0.40640000000000004
0
CIRCLE
8
drills_PTH
10
72.42
20
57.690000000000005
30
0
40
0.40640000000000004
0
CIRCLE
8
drills_PTH
10
75.85000000000001
20
44.99
30
0
40
0.40640000000000004
0
CIRCLE
8
drills_PTH
10
75.85000000000001
20
57.690000000000005
30
0
40
0.40640000000000004
0
CIRCLE
8
drills_PTH
10
79.28
20
44.99
30
0
40
0.40640000000000004
0
CIRCLE
8
drills_PTH
10
79.28
20
57.690000000000005
30
0
40
0.40640000000000004
0
CIRCLE
8
drills_PTH
10
82.71000000000001
20
42.99
30
0
40
0.40640000000000004
0
CIRCLE
8
drills_PTH
10
86.14
20
40.99
30
0
40
0.40640000000000004
0
CIRCLE
8
drills_PTH
10
86.14
20
53.690000000000005
30
0
40
0.40640000000000004
0
CIRCLE
8
drills_PTH
10
84.74000000000001
20
13.59
30
0
40
0.40640000000000004
0
CIRCLE
8
drills_PTH
10
82.71000000000001
20
55.690000000000005
30
0
40
0.40640000000000004
0
CIRCLE
8
drills_PTH
10
47.56
20
44.99
30
0
40
0.40640000000000004
0
CIRCLE
8
drills_PTH
10
90.33
20
2.16
30
0
40
0.40640000000000004
0
CIRCLE
8
drills_PTH
10
90.33
20
14.860000000000001
30
0
40
0.40640000000000004
0
CIRCLE
8
drills_PTH
10
84.74000000000001
20
0.89
30
0
40
0.40640000000000004
0
CIRCLE
8
drills_PTH
10
78.39
20
0.89
30
0
40
0.40640000000000004
0
CIRCLE
8
drills_PTH
10
78.39
20
13.59
30
0
40
0.40640000000000004
0
CIRCLE
8
drills_PTH
10
72.04
20
0.89
30
0
40
0.40640000000000004
0
CIRCLE
8
drills_PTH
10
72.04
20
13.59
30
0
40
0.40640000000000004
0
CIRCLE
8
drills_PTH
10
67.88000000000001
20
0.89
30
0
40
0.40640000000000004
0
CIRCLE
8
drills_PTH
10
48.800000000000004
20
22.67
30
0
40
0.4
0
CIRCLE
8
drills_PTH
10
51.34
20
22.67
30
0
40
0.4
0
CIRCLE
8
drills_PTH
10
53.88
20
22.67
30
0
40
0.4
0
CIRCLE
8
drills_PTH
10
56.42
20
22.67
30
0
40
0.4
0
CIRCLE
8
drills_PTH
10
58.96
20
22.67
30
0
40
0.4
0
CIRCLE
8
drills_PTH
10
61.5
20
22.67
30
0
40
0.4
0
CIRCLE
8
drills_PTH
10
64.04
20
22.67
30
0
40
0.4
0
CIRCLE
8
drills_PTH
10
66.58
20
22.67
30
0
40
0.4
0
CIRCLE
8
drills_PTH
10
69.12
20
22.67
30
0
40
0.4
0
CIRCLE
8
drills_PTH
10
71.66
20
22.67
30
0
40
0.4
0
CIRCLE
8
drills_PTH
10
74.2
20
22.67
30
0
40
0.4
0
CIRCLE
8
drills_PTH
10
76.74000000000001
20
22.67
30
0
40
0.4
0
CIRCLE
8
drills_PTH
10
48.800000000000004
20
37.910000000000004
30
0
40
0.4
0
CIRCLE
8
drills_PTH
10
51.34
20
37.910000000000004
30
0
40
0.4
0
CIRCLE
8
drills_PTH
10
53.88
20
37.910000000000004
30
0
40
0.4
0
CIRCLE
8
drills_PTH
10
69.12
20
37.910000000000004
30
0
40
0.4
0
CIRCLE
8
drills_PTH
10
71.66
20
37.910000000000004
30
0
40
0.4
0
CIRCLE
8
drills_PTH
10
76.74000000000001
20
37.910000000000004
30
0
40
0.4
0
CIRCLE
8
drills_PTH
10
61.5
20
37.910000000000004
30
0
40
0.4
0
CIRCLE
8
drills_PTH
10
50.07
20
27.75
30
0
40
0.4
0
CIRCLE
8
drills_PTH
10
58.96
20
37.910000000000004
30
0
40
0.4
0
CIRCLE
8
drills_PTH
10
47.53
20
32.83
30
0
40
0.4
0
CIRCLE
8
drills_PTH
10
50.07
20
30.290000000000003
30
0
40
0.4
0
CIRCLE
8
drills_PTH
10
47.53
20
30.290000000000003
30
0
40
0.4
0
CIRCLE
8
drills_PTH
10
74.2
20
37.910000000000004
30
0
40
0.4
0
CIRCLE
8
drills_PTH
10
47.53
20
27.75
30
0
40
0.4
0
CIRCLE
8
drills_PTH
10
66.58
20
37.910000000000004
30
0
40
0.4
0
CIRCLE
8
drills_PTH
10
50.07
20
32.83
30
0
40
0.4
0
CIRCLE
8
drills_PTH
10
56.42
20
37.910000000000004
30
0
40
0.4
0
CIRCLE
8
drills_PTH
10
79.28
20
37.910000000000004
30
0
40
0.4
0
CIRCLE
8
drills_PTH
10
81.82000000000001
20
37.910000000000004
30
0
40
0.4
0
CIRCLE
8
drills_PTH
10
79.28
20
22.67
30
0
40
0.4
0
CIRCLE
8
drills_PTH
10
81.82000000000001
20
22.67
30
0
40
0.4
0
CIRCLE
8
drills_PTH
10
84.36
20
22.67
30
0
40
0.4
0
CIRCLE
8
drills_PTH
10
84.36
20
37.910000000000004
30
0
40
0.4
0
CIRCLE
8
drills_PTH
10
64.04
20
37.910000000000004
30
0
40
0.4
0
ENDSEC
0
EOF